<svg width="32" height="19" viewBox="0 0 32 19" fill="none" xmlns="http://www.w3.org/2000/svg">
<path d="M4.80368e-09 9.32168C0.0026855 9.66704 0.13941 9.99786 0.381333 10.2443L0.389333 10.2603L8.38933 18.2603C8.6408 18.5032 8.97761 18.6376 9.3272 18.6346C9.6768 18.6315 10.0112 18.4913 10.2584 18.2441C10.5056 17.9969 10.6459 17.6625 10.6489 17.3129C10.6519 16.9633 10.5175 16.6265 10.2747 16.375L4.552 10.6497H30.6667C31.0203 10.6497 31.3594 10.5092 31.6095 10.2592C31.8595 10.0091 32 9.66997 32 9.31635C32 8.96273 31.8595 8.62359 31.6095 8.37354C31.3594 8.12349 31.0203 7.98301 30.6667 7.98301H4.552L10.2747 2.26035C10.5175 2.00888 10.6519 1.67208 10.6489 1.32248C10.6459 0.972884 10.5056 0.638467 10.2584 0.391256C10.0112 0.144046 9.6768 0.00382072 9.3272 0.000782825C8.97761 -0.00225507 8.6408 0.132137 8.38933 0.375015L0.389333 8.37501L0.381333 8.38835C0.262635 8.50862 0.168445 8.65081 0.104 8.80701C0.0353603 8.96805 -1.50508e-05 9.1413 4.80368e-09 9.31635V9.32168Z" fill="#D33F55" fill-opacity="0.6"/>
</svg>
