<svg width="32" height="19" viewBox="0 0 32 19" fill="none" xmlns="http://www.w3.org/2000/svg">
<path d="M32 9.67978C31.9973 9.33442 31.8606 9.0036 31.6187 8.75712L31.6107 8.74112L23.6107 0.741117C23.3592 0.498239 23.0224 0.363847 22.6728 0.366883C22.3232 0.369922 21.9888 0.510148 21.7416 0.75736C21.4944 1.00457 21.3541 1.33899 21.3511 1.68858C21.3481 2.03818 21.4825 2.37498 21.7253 2.62645L27.448 8.35178L1.33333 8.35178C0.979711 8.35178 0.640573 8.49226 0.390523 8.74231C0.140475 8.99235 8.45312e-07 9.33149 8.14397e-07 9.68511C7.83482e-07 10.0387 0.140475 10.3779 0.390523 10.6279C0.640572 10.878 0.97971 11.0184 1.33333 11.0184L27.448 11.0184L21.7253 16.7411C21.4825 16.9926 21.3481 17.3294 21.3511 17.679C21.3541 18.0286 21.4944 18.363 21.7416 18.6102C21.9888 18.8574 22.3232 18.9976 22.6728 19.0007C23.0224 19.0037 23.3592 18.8693 23.6107 18.6264L31.6107 10.6265L31.6187 10.6131C31.7374 10.4928 31.8316 10.3507 31.896 10.1945C31.9646 10.0334 32 9.86017 32 9.68512L32 9.67978Z" fill="#D33F55"/>
</svg>
