<svg width="70" height="70" viewBox="0 0 70 70" fill="none" xmlns="http://www.w3.org/2000/svg">
<path d="M29.4 4.20001C16.2695 4.20001 5.6 14.8695 5.6 28C5.6 41.1305 16.2695 51.8 29.4 51.8C34.5953 51.8 39.3969 50.1266 43.3125 47.2938L61.7312 65.6688L65.6687 61.7313L47.4687 43.4875C51.0453 39.3203 53.2 33.9117 53.2 28C53.2 14.8695 42.5305 4.20001 29.4 4.20001ZM29.4 7.00001C41.0156 7.00001 50.4 16.3844 50.4 28C50.4 39.6156 41.0156 49 29.4 49C17.7844 49 8.4 39.6156 8.4 28C8.4 16.3844 17.7844 7.00001 29.4 7.00001Z" fill="white"/>
</svg>
