<svg width="144" height="16" viewBox="0 0 144 16" fill="none" xmlns="http://www.w3.org/2000/svg">
<path d="M3.04297 0.78125V15H0.357422V0.78125H3.04297ZM11.5781 0.78125L5.875 7.71484L2.61328 11.2012L2.13477 8.59375L4.40039 5.6543L8.28711 0.78125H11.5781ZM8.58984 15L4.16602 8.33984L6.08984 6.60156L11.7832 15H8.58984ZM71.1777 0.78125H73.502L77.3887 11.4844L81.2656 0.78125H83.5996L78.3164 15H76.4512L71.1777 0.78125ZM70.0059 0.78125H72.2812L72.6914 10.6152V15H70.0059V0.78125ZM82.4863 0.78125H84.7715V15H82.0859V10.6152L82.4863 0.78125Z" fill="#D33F55"/>
<path d="M18.6582 12.7539V7.88086C18.6582 7.52279 18.5964 7.21354 18.4727 6.95312C18.349 6.69271 18.1602 6.49089 17.9062 6.34766C17.6523 6.20443 17.3301 6.13281 16.9395 6.13281C16.5944 6.13281 16.2917 6.19141 16.0312 6.30859C15.7773 6.42578 15.582 6.5918 15.4453 6.80664C15.3086 7.01497 15.2402 7.25586 15.2402 7.5293H12.6523C12.6523 7.0931 12.7565 6.67969 12.9648 6.28906C13.1732 5.89193 13.4694 5.54036 13.8535 5.23438C14.2441 4.92188 14.7096 4.67773 15.25 4.50195C15.7969 4.32617 16.4089 4.23828 17.0859 4.23828C17.8867 4.23828 18.5996 4.375 19.2246 4.64844C19.8561 4.91536 20.3509 5.31901 20.709 5.85938C21.0736 6.39974 21.2559 7.08008 21.2559 7.90039V12.5098C21.2559 13.0371 21.2884 13.4896 21.3535 13.8672C21.4251 14.2383 21.5293 14.5605 21.666 14.834V15H19.0391C18.9154 14.7331 18.821 14.3945 18.7559 13.9844C18.6908 13.5677 18.6582 13.1576 18.6582 12.7539ZM19.0195 8.56445L19.0391 10.0977H17.4082C17.0046 10.0977 16.6497 10.14 16.3438 10.2246C16.0378 10.3027 15.7871 10.4199 15.5918 10.5762C15.3965 10.7259 15.25 10.9082 15.1523 11.123C15.0547 11.3314 15.0059 11.569 15.0059 11.8359C15.0059 12.0964 15.0645 12.3307 15.1816 12.5391C15.3053 12.7474 15.4811 12.9134 15.709 13.0371C15.9434 13.1543 16.2168 13.2129 16.5293 13.2129C16.985 13.2129 17.3822 13.1217 17.7207 12.9395C18.0592 12.7507 18.3229 12.5228 18.5117 12.2559C18.7005 11.9889 18.8014 11.735 18.8145 11.4941L19.5566 12.6074C19.4655 12.8743 19.3288 13.1576 19.1465 13.457C18.9642 13.7565 18.7298 14.0365 18.4434 14.2969C18.1569 14.5573 17.8118 14.7721 17.4082 14.9414C17.0046 15.1107 16.5358 15.1953 16.002 15.1953C15.3184 15.1953 14.7064 15.0586 14.166 14.7852C13.6257 14.5117 13.1992 14.1374 12.8867 13.6621C12.5742 13.1868 12.418 12.6465 12.418 12.041C12.418 11.4811 12.5221 10.9863 12.7305 10.5566C12.9388 10.127 13.248 9.76562 13.6582 9.47266C14.0684 9.17318 14.5762 8.94857 15.1816 8.79883C15.7936 8.64258 16.4935 8.56445 17.2812 8.56445H19.0195ZM29.918 12.7539V0H32.5156V15H30.1719L29.918 12.7539ZM23.1309 9.84375V9.63867C23.1309 8.83138 23.222 8.09896 23.4043 7.44141C23.5931 6.77734 23.8665 6.20768 24.2246 5.73242C24.5827 5.25716 25.0156 4.88932 25.5234 4.62891C26.0378 4.36849 26.6204 4.23828 27.2715 4.23828C27.903 4.23828 28.4531 4.36523 28.9219 4.61914C29.3971 4.87305 29.8008 5.23438 30.1328 5.70312C30.4714 6.17188 30.7415 6.72852 30.9434 7.37305C31.1452 8.01107 31.2917 8.71419 31.3828 9.48242V10.0391C31.2917 10.7878 31.1452 11.4746 30.9434 12.0996C30.7415 12.7246 30.4714 13.2715 30.1328 13.7402C29.8008 14.2025 29.3971 14.5605 28.9219 14.8145C28.4466 15.0684 27.89 15.1953 27.252 15.1953C26.6074 15.1953 26.028 15.0618 25.5137 14.7949C25.0059 14.528 24.5729 14.1536 24.2148 13.6719C23.8633 13.1901 23.5931 12.6237 23.4043 11.9727C23.222 11.3216 23.1309 10.612 23.1309 9.84375ZM25.7188 9.63867V9.84375C25.7188 10.2995 25.7578 10.7259 25.8359 11.123C25.9141 11.5202 26.041 11.8717 26.2168 12.1777C26.3926 12.4772 26.6172 12.7116 26.8906 12.8809C27.1706 13.0501 27.5091 13.1348 27.9062 13.1348C28.4141 13.1348 28.8307 13.0241 29.1562 12.8027C29.4883 12.5749 29.7454 12.2656 29.9277 11.875C30.11 11.4779 30.2272 11.0319 30.2793 10.5371V9.00391C30.2533 8.61328 30.1849 8.25195 30.0742 7.91992C29.9701 7.58789 29.8203 7.30143 29.625 7.06055C29.4362 6.81966 29.2018 6.63086 28.9219 6.49414C28.6419 6.35742 28.3099 6.28906 27.9258 6.28906C27.5286 6.28906 27.1901 6.37695 26.9102 6.55273C26.6302 6.72201 26.4023 6.95964 26.2266 7.26562C26.0508 7.57161 25.9206 7.92643 25.8359 8.33008C25.7578 8.73372 25.7188 9.16992 25.7188 9.63867ZM40.6699 12.7539V7.88086C40.6699 7.52279 40.6081 7.21354 40.4844 6.95312C40.3607 6.69271 40.1719 6.49089 39.918 6.34766C39.6641 6.20443 39.3418 6.13281 38.9512 6.13281C38.6061 6.13281 38.3034 6.19141 38.043 6.30859C37.7891 6.42578 37.5938 6.5918 37.457 6.80664C37.3203 7.01497 37.252 7.25586 37.252 7.5293H34.6641C34.6641 7.0931 34.7682 6.67969 34.9766 6.28906C35.1849 5.89193 35.4811 5.54036 35.8652 5.23438C36.2559 4.92188 36.7214 4.67773 37.2617 4.50195C37.8086 4.32617 38.4206 4.23828 39.0977 4.23828C39.8984 4.23828 40.6113 4.375 41.2363 4.64844C41.8678 4.91536 42.3626 5.31901 42.7207 5.85938C43.0853 6.39974 43.2676 7.08008 43.2676 7.90039V12.5098C43.2676 13.0371 43.3001 13.4896 43.3652 13.8672C43.4368 14.2383 43.541 14.5605 43.6777 14.834V15H41.0508C40.9271 14.7331 40.8327 14.3945 40.7676 13.9844C40.7025 13.5677 40.6699 13.1576 40.6699 12.7539ZM41.0312 8.56445L41.0508 10.0977H39.4199C39.0163 10.0977 38.6615 10.14 38.3555 10.2246C38.0495 10.3027 37.7988 10.4199 37.6035 10.5762C37.4082 10.7259 37.2617 10.9082 37.1641 11.123C37.0664 11.3314 37.0176 11.569 37.0176 11.8359C37.0176 12.0964 37.0762 12.3307 37.1934 12.5391C37.3171 12.7474 37.4928 12.9134 37.7207 13.0371C37.9551 13.1543 38.2285 13.2129 38.541 13.2129C38.9967 13.2129 39.3939 13.1217 39.7324 12.9395C40.071 12.7507 40.3346 12.5228 40.5234 12.2559C40.7122 11.9889 40.8132 11.735 40.8262 11.4941L41.5684 12.6074C41.4772 12.8743 41.3405 13.1576 41.1582 13.457C40.9759 13.7565 40.7415 14.0365 40.4551 14.2969C40.1686 14.5573 39.8236 14.7721 39.4199 14.9414C39.0163 15.1107 38.5475 15.1953 38.0137 15.1953C37.3301 15.1953 36.7181 15.0586 36.1777 14.7852C35.6374 14.5117 35.2109 14.1374 34.8984 13.6621C34.5859 13.1868 34.4297 12.6465 34.4297 12.041C34.4297 11.4811 34.5339 10.9863 34.7422 10.5566C34.9505 10.127 35.2598 9.76562 35.6699 9.47266C36.0801 9.17318 36.5879 8.94857 37.1934 8.79883C37.8053 8.64258 38.5052 8.56445 39.293 8.56445H41.0312ZM51.4023 12.1094C51.4023 11.888 51.3438 11.6895 51.2266 11.5137C51.1094 11.3379 50.888 11.1784 50.5625 11.0352C50.2435 10.8854 49.7747 10.7454 49.1562 10.6152C48.6094 10.498 48.1048 10.3516 47.6426 10.1758C47.1803 10 46.7832 9.78841 46.4512 9.54102C46.1191 9.28711 45.8587 8.99089 45.6699 8.65234C45.4876 8.30729 45.3965 7.91016 45.3965 7.46094C45.3965 7.02474 45.4909 6.61458 45.6797 6.23047C45.8685 5.83984 46.1419 5.49805 46.5 5.20508C46.8581 4.9056 47.2943 4.67122 47.8086 4.50195C48.3229 4.32617 48.9023 4.23828 49.5469 4.23828C50.4453 4.23828 51.2168 4.38477 51.8613 4.67773C52.5124 4.9707 53.0104 5.37435 53.3555 5.88867C53.7005 6.39648 53.873 6.9694 53.873 7.60742H51.2949C51.2949 7.32747 51.2298 7.07357 51.0996 6.8457C50.9759 6.61784 50.7839 6.43555 50.5234 6.29883C50.263 6.1556 49.9342 6.08398 49.5371 6.08398C49.179 6.08398 48.8763 6.14258 48.6289 6.25977C48.388 6.37695 48.2057 6.52995 48.082 6.71875C47.9583 6.90755 47.8965 7.11589 47.8965 7.34375C47.8965 7.51302 47.929 7.66602 47.9941 7.80273C48.0658 7.93294 48.1797 8.05339 48.3359 8.16406C48.4922 8.27474 48.7038 8.37565 48.9707 8.4668C49.2441 8.55794 49.5794 8.64583 49.9766 8.73047C50.7643 8.88672 51.4512 9.09505 52.0371 9.35547C52.6296 9.60938 53.0918 9.94792 53.4238 10.3711C53.7559 10.7943 53.9219 11.3346 53.9219 11.9922C53.9219 12.4609 53.821 12.8906 53.6191 13.2812C53.4173 13.6654 53.1243 14.0007 52.7402 14.2871C52.3561 14.5736 51.8971 14.7982 51.3633 14.9609C50.8294 15.1172 50.2272 15.1953 49.5566 15.1953C48.5866 15.1953 47.7663 15.0228 47.0957 14.6777C46.4251 14.3262 45.9173 13.8835 45.5723 13.3496C45.2272 12.8092 45.0547 12.2493 45.0547 11.6699H47.5254C47.5449 12.0801 47.6556 12.4089 47.8574 12.6562C48.0592 12.9036 48.3132 13.0827 48.6191 13.1934C48.9316 13.2975 49.2604 13.3496 49.6055 13.3496C49.9961 13.3496 50.3249 13.2975 50.5918 13.1934C50.8587 13.0827 51.0605 12.9362 51.1973 12.7539C51.334 12.5651 51.4023 12.3503 51.4023 12.1094ZM60.8848 4.43359V6.28906H54.8301V4.43359H60.8848ZM56.4512 1.83594H59.0391V11.9531C59.0391 12.2656 59.0814 12.5065 59.166 12.6758C59.2507 12.8451 59.3776 12.959 59.5469 13.0176C59.7161 13.0762 59.918 13.1055 60.1523 13.1055C60.3216 13.1055 60.4779 13.0957 60.6211 13.0762C60.7643 13.0566 60.8848 13.0371 60.9824 13.0176L60.9922 14.9512C60.7773 15.0228 60.5332 15.0814 60.2598 15.127C59.9928 15.1725 59.6901 15.1953 59.3516 15.1953C58.7721 15.1953 58.2643 15.0977 57.8281 14.9023C57.3919 14.7005 57.0534 14.3783 56.8125 13.9355C56.5716 13.4863 56.4512 12.8939 56.4512 12.1582V1.83594ZM65.1816 6.5918V15H62.6035V4.43359H65.0449L65.1816 6.5918ZM68.3945 4.36523L68.3555 6.76758C68.2122 6.74154 68.0495 6.72201 67.8672 6.70898C67.6914 6.69596 67.5254 6.68945 67.3691 6.68945C66.972 6.68945 66.6237 6.74479 66.3242 6.85547C66.0247 6.95964 65.7741 7.11263 65.5723 7.31445C65.377 7.51628 65.2272 7.76367 65.123 8.05664C65.0189 8.3431 64.9603 8.66862 64.9473 9.0332L64.3906 8.96484C64.3906 8.29427 64.459 7.67253 64.5957 7.09961C64.7324 6.52669 64.931 6.02539 65.1914 5.5957C65.4518 5.16602 65.7773 4.83398 66.168 4.59961C66.5651 4.35872 67.0208 4.23828 67.5352 4.23828C67.6784 4.23828 67.8314 4.2513 67.9941 4.27734C68.1634 4.29688 68.2969 4.32617 68.3945 4.36523ZM86.8516 9.82422V9.61914C86.8516 8.8444 86.9622 8.13151 87.1836 7.48047C87.4049 6.82292 87.7272 6.25326 88.1504 5.77148C88.5736 5.28971 89.0911 4.91536 89.7031 4.64844C90.3151 4.375 91.0117 4.23828 91.793 4.23828C92.5872 4.23828 93.2904 4.375 93.9023 4.64844C94.5208 4.91536 95.0417 5.28971 95.4648 5.77148C95.888 6.25326 96.2103 6.82292 96.4316 7.48047C96.653 8.13151 96.7637 8.8444 96.7637 9.61914V9.82422C96.7637 10.5924 96.653 11.3053 96.4316 11.9629C96.2103 12.6139 95.888 13.1836 95.4648 13.6719C95.0417 14.1536 94.5241 14.528 93.9121 14.7949C93.3001 15.0618 92.6003 15.1953 91.8125 15.1953C91.0312 15.1953 90.3314 15.0618 89.7129 14.7949C89.0944 14.528 88.5736 14.1536 88.1504 13.6719C87.7272 13.1836 87.4049 12.6139 87.1836 11.9629C86.9622 11.3053 86.8516 10.5924 86.8516 9.82422ZM89.4297 9.61914V9.82422C89.4297 10.2865 89.4753 10.7194 89.5664 11.123C89.6576 11.5267 89.7975 11.8815 89.9863 12.1875C90.1751 12.4935 90.4193 12.7344 90.7188 12.9102C91.0247 13.0794 91.3893 13.1641 91.8125 13.1641C92.2292 13.1641 92.5872 13.0794 92.8867 12.9102C93.1862 12.7344 93.4303 12.4935 93.6191 12.1875C93.8145 11.8815 93.9577 11.5267 94.0488 11.123C94.14 10.7194 94.1855 10.2865 94.1855 9.82422V9.61914C94.1855 9.16341 94.14 8.73698 94.0488 8.33984C93.9577 7.9362 93.8145 7.58138 93.6191 7.27539C93.4303 6.96289 93.1829 6.71875 92.877 6.54297C92.5775 6.36068 92.2161 6.26953 91.793 6.26953C91.3763 6.26953 91.0182 6.36068 90.7188 6.54297C90.4193 6.71875 90.1751 6.96289 89.9863 7.27539C89.7975 7.58138 89.6576 7.9362 89.5664 8.33984C89.4753 8.73698 89.4297 9.16341 89.4297 9.61914ZM104.449 12.1094C104.449 11.888 104.391 11.6895 104.273 11.5137C104.156 11.3379 103.935 11.1784 103.609 11.0352C103.29 10.8854 102.822 10.7454 102.203 10.6152C101.656 10.498 101.152 10.3516 100.689 10.1758C100.227 10 99.8301 9.78841 99.498 9.54102C99.166 9.28711 98.9056 8.99089 98.7168 8.65234C98.5345 8.30729 98.4434 7.91016 98.4434 7.46094C98.4434 7.02474 98.5378 6.61458 98.7266 6.23047C98.9154 5.83984 99.1888 5.49805 99.5469 5.20508C99.9049 4.9056 100.341 4.67122 100.855 4.50195C101.37 4.32617 101.949 4.23828 102.594 4.23828C103.492 4.23828 104.264 4.38477 104.908 4.67773C105.559 4.9707 106.057 5.37435 106.402 5.88867C106.747 6.39648 106.92 6.9694 106.92 7.60742H104.342C104.342 7.32747 104.277 7.07357 104.146 6.8457C104.023 6.61784 103.831 6.43555 103.57 6.29883C103.31 6.1556 102.981 6.08398 102.584 6.08398C102.226 6.08398 101.923 6.14258 101.676 6.25977C101.435 6.37695 101.253 6.52995 101.129 6.71875C101.005 6.90755 100.943 7.11589 100.943 7.34375C100.943 7.51302 100.976 7.66602 101.041 7.80273C101.113 7.93294 101.227 8.05339 101.383 8.16406C101.539 8.27474 101.751 8.37565 102.018 8.4668C102.291 8.55794 102.626 8.64583 103.023 8.73047C103.811 8.88672 104.498 9.09505 105.084 9.35547C105.676 9.60938 106.139 9.94792 106.471 10.3711C106.803 10.7943 106.969 11.3346 106.969 11.9922C106.969 12.4609 106.868 12.8906 106.666 13.2812C106.464 13.6654 106.171 14.0007 105.787 14.2871C105.403 14.5736 104.944 14.7982 104.41 14.9609C103.876 15.1172 103.274 15.1953 102.604 15.1953C101.633 15.1953 100.813 15.0228 100.143 14.6777C99.472 14.3262 98.9642 13.8835 98.6191 13.3496C98.2741 12.8092 98.1016 12.2493 98.1016 11.6699H100.572C100.592 12.0801 100.702 12.4089 100.904 12.6562C101.106 12.9036 101.36 13.0827 101.666 13.1934C101.979 13.2975 102.307 13.3496 102.652 13.3496C103.043 13.3496 103.372 13.2975 103.639 13.1934C103.906 13.0827 104.107 12.9362 104.244 12.7539C104.381 12.5651 104.449 12.3503 104.449 12.1094ZM113.268 13.1641C113.632 13.1641 113.958 13.0924 114.244 12.9492C114.531 12.806 114.758 12.6042 114.928 12.3438C115.104 12.0833 115.198 11.7806 115.211 11.4355H117.643C117.63 12.1517 117.428 12.793 117.037 13.3594C116.646 13.9258 116.126 14.375 115.475 14.707C114.83 15.0326 114.107 15.1953 113.307 15.1953C112.493 15.1953 111.783 15.0586 111.178 14.7852C110.572 14.5117 110.068 14.1309 109.664 13.6426C109.267 13.1543 108.967 12.5879 108.766 11.9434C108.57 11.2988 108.473 10.6087 108.473 9.87305V9.56055C108.473 8.82487 108.57 8.13477 108.766 7.49023C108.967 6.8457 109.267 6.2793 109.664 5.79102C110.068 5.30273 110.572 4.92188 111.178 4.64844C111.783 4.375 112.49 4.23828 113.297 4.23828C114.15 4.23828 114.898 4.4043 115.543 4.73633C116.194 5.06836 116.702 5.53711 117.066 6.14258C117.438 6.74805 117.63 7.46094 117.643 8.28125H115.211C115.198 7.90365 115.113 7.5651 114.957 7.26562C114.801 6.96615 114.579 6.72526 114.293 6.54297C114.007 6.36068 113.658 6.26953 113.248 6.26953C112.812 6.26953 112.447 6.36068 112.154 6.54297C111.868 6.72526 111.643 6.97591 111.48 7.29492C111.324 7.60742 111.214 7.95898 111.148 8.34961C111.09 8.73372 111.061 9.13737 111.061 9.56055V9.87305C111.061 10.3027 111.09 10.7129 111.148 11.1035C111.214 11.4941 111.324 11.8457 111.48 12.1582C111.643 12.4642 111.868 12.7083 112.154 12.8906C112.447 13.0729 112.818 13.1641 113.268 13.1641ZM118.902 9.82422V9.61914C118.902 8.8444 119.013 8.13151 119.234 7.48047C119.456 6.82292 119.778 6.25326 120.201 5.77148C120.624 5.28971 121.142 4.91536 121.754 4.64844C122.366 4.375 123.062 4.23828 123.844 4.23828C124.638 4.23828 125.341 4.375 125.953 4.64844C126.572 4.91536 127.092 5.28971 127.516 5.77148C127.939 6.25326 128.261 6.82292 128.482 7.48047C128.704 8.13151 128.814 8.8444 128.814 9.61914V9.82422C128.814 10.5924 128.704 11.3053 128.482 11.9629C128.261 12.6139 127.939 13.1836 127.516 13.6719C127.092 14.1536 126.575 14.528 125.963 14.7949C125.351 15.0618 124.651 15.1953 123.863 15.1953C123.082 15.1953 122.382 15.0618 121.764 14.7949C121.145 14.528 120.624 14.1536 120.201 13.6719C119.778 13.1836 119.456 12.6139 119.234 11.9629C119.013 11.3053 118.902 10.5924 118.902 9.82422ZM121.48 9.61914V9.82422C121.48 10.2865 121.526 10.7194 121.617 11.123C121.708 11.5267 121.848 11.8815 122.037 12.1875C122.226 12.4935 122.47 12.7344 122.77 12.9102C123.076 13.0794 123.44 13.1641 123.863 13.1641C124.28 13.1641 124.638 13.0794 124.938 12.9102C125.237 12.7344 125.481 12.4935 125.67 12.1875C125.865 11.8815 126.008 11.5267 126.1 11.123C126.191 10.7194 126.236 10.2865 126.236 9.82422V9.61914C126.236 9.16341 126.191 8.73698 126.1 8.33984C126.008 7.9362 125.865 7.58138 125.67 7.27539C125.481 6.96289 125.234 6.71875 124.928 6.54297C124.628 6.36068 124.267 6.26953 123.844 6.26953C123.427 6.26953 123.069 6.36068 122.77 6.54297C122.47 6.71875 122.226 6.96289 122.037 7.27539C121.848 7.58138 121.708 7.9362 121.617 8.33984C121.526 8.73698 121.48 9.16341 121.48 9.61914ZM133.629 12.4609L135.943 4.43359H137.584L137.096 7.20703L134.762 15H133.346L133.629 12.4609ZM132.35 4.43359L134.088 12.4805L134.244 15H132.613L129.84 4.43359H132.35ZM139.732 12.3633L141.432 4.43359H143.932L141.178 15H139.547L139.732 12.3633ZM137.838 4.43359L140.133 12.3828L140.436 15H139.02L136.666 7.20703L136.188 4.43359H137.838Z" fill="white" fill-opacity="0.8"/>
</svg>
