<svg width="16" height="13" viewBox="0 0 16 13" fill="none" xmlns="http://www.w3.org/2000/svg">
<path d="M14 0.910156H2C1.46957 0.910156 0.960858 1.12087 0.585785 1.49594C0.210712 1.87101 0 2.37972 0 2.91016V10.4102C0 10.9406 0.210712 11.4493 0.585785 11.8244C0.960858 12.1994 1.46957 12.4102 2 12.4102H14C14.5304 12.4102 15.0391 12.1994 15.4142 11.8244C15.7893 11.4493 16 10.9406 16 10.4102V2.91016C16 2.37972 15.7893 1.87101 15.4142 1.49594C15.0391 1.12087 14.5304 0.910156 14 0.910156ZM15 10.4102C15 10.6754 14.8946 10.9297 14.7071 11.1173C14.5196 11.3048 14.2652 11.4102 14 11.4102H2C1.73478 11.4102 1.48043 11.3048 1.29289 11.1173C1.10536 10.9297 1 10.6754 1 10.4102V2.91016C1 2.64494 1.10536 2.39059 1.29289 2.20305C1.48043 2.01551 1.73478 1.91016 2 1.91016H14C14.2652 1.91016 14.5196 2.01551 14.7071 2.20305C14.8946 2.39059 15 2.64494 15 2.91016V10.4102Z" fill="white"/>
<path d="M13.8851 3.59524C13.8435 3.54425 13.7922 3.50198 13.7343 3.47085C13.6763 3.43972 13.6127 3.42034 13.5472 3.41384C13.4817 3.40734 13.4155 3.41383 13.3526 3.43294C13.2896 3.45206 13.231 3.48343 13.1801 3.52525L8.00015 7.76524L2.81515 3.52525C2.76527 3.47861 2.70637 3.44267 2.64208 3.41967C2.57779 3.39666 2.50947 3.38708 2.44133 3.39149C2.37319 3.3959 2.30668 3.41422 2.24589 3.44532C2.1851 3.47642 2.13133 3.51965 2.08788 3.57233C2.04444 3.62501 2.01225 3.68603 1.99329 3.75162C1.97434 3.81722 1.96901 3.88601 1.97765 3.95374C1.9863 4.02148 2.00872 4.08672 2.04355 4.14545C2.07837 4.20419 2.12486 4.25516 2.18015 4.29524L7.68015 8.79524C7.7701 8.86978 7.88332 8.91048 8.00015 8.91025C8.11525 8.90932 8.22652 8.86869 8.31515 8.79524L13.8151 4.29524C13.9167 4.21131 13.981 4.09071 13.9941 3.95964C14.0072 3.82857 13.968 3.69762 13.8851 3.59524Z" fill="white"/>
<path d="M11.85 7.55518C11.7563 7.46206 11.6296 7.40979 11.4975 7.40979C11.3654 7.40979 11.2387 7.46206 11.145 7.55518C11.0981 7.60166 11.0609 7.65697 11.0355 7.7179C11.0101 7.77883 10.9971 7.84418 10.9971 7.91019C10.9971 7.97619 11.0101 8.04154 11.0355 8.10247C11.0609 8.1634 11.0981 8.2187 11.145 8.26518L13.145 10.2652C13.1916 10.3115 13.2469 10.3481 13.3077 10.3731C13.3684 10.398 13.4335 10.4107 13.4992 10.4105C13.5649 10.4102 13.6299 10.3971 13.6906 10.3717C13.7512 10.3463 13.8062 10.3093 13.8525 10.2627C13.8988 10.2161 13.9354 10.1608 13.9603 10.1C13.9853 10.0392 13.998 9.97411 13.9977 9.90842C13.9975 9.84272 13.9843 9.77771 13.959 9.7171C13.9336 9.65649 13.8966 9.60147 13.85 9.55518L11.85 7.55518Z" fill="white"/>
<path d="M4.16487 7.55518L2.16487 9.55518C2.07072 9.64867 2.01756 9.77573 2.01709 9.90842C2.01662 10.0411 2.06888 10.1685 2.16237 10.2627C2.25586 10.3568 2.38292 10.41 2.51561 10.4105C2.64829 10.4109 2.77572 10.3587 2.86988 10.2652L4.86988 8.26518C4.91674 8.2187 4.95394 8.1634 4.97932 8.10247C5.0047 8.04154 5.01777 7.97619 5.01777 7.91019C5.01777 7.84418 5.0047 7.77883 4.97932 7.7179C4.95394 7.65697 4.91674 7.60166 4.86988 7.55518C4.77619 7.46206 4.64947 7.40979 4.51738 7.40979C4.38528 7.40979 4.25856 7.46206 4.16487 7.55518Z" fill="white"/>
</svg>
