<svg width="16" height="20" viewBox="0 0 16 20" fill="none" xmlns="http://www.w3.org/2000/svg">
<path d="M8 0C5.87827 0 3.84344 0.842848 2.34314 2.34314C0.842853 3.84343 0 5.87827 0 8C0 11.8031 4.12308 16.3692 7.58769 19.5323L8.01231 19.92L8.42462 19.52C12.2585 15.8277 16 11.9077 16 8C16 5.87827 15.1571 3.84343 13.6569 2.34314C12.1566 0.842848 10.1217 0 8 0ZM8 18.2277C3.63692 14.1538 1.23077 10.5354 1.23077 8C1.23077 6.20469 1.94395 4.4829 3.21343 3.21343C4.48291 1.94395 6.20469 1.23077 8 1.23077C9.79531 1.23077 11.5171 1.94395 12.7866 3.21343C14.056 4.4829 14.7692 6.20469 14.7692 8C14.7692 11.2923 11.4831 14.8246 8 18.2277Z" fill="white"/>
<path d="M8.00002 4.92303C7.39146 4.92303 6.79657 5.10349 6.29057 5.44159C5.78457 5.77969 5.3902 6.26023 5.15731 6.82247C4.92443 7.3847 4.8635 8.00337 4.98222 8.60023C5.10094 9.1971 5.39399 9.74536 5.8243 10.1757C6.25462 10.606 6.80288 10.899 7.39974 11.0178C7.99661 11.1365 8.61527 11.0756 9.1775 10.8427C9.73974 10.6098 10.2203 10.2154 10.5584 9.7094C10.8965 9.2034 11.0769 8.60852 11.0769 7.99996C11.0769 7.18391 10.7528 6.40128 10.1757 5.82424C9.5987 5.24721 8.81607 4.92303 8.00002 4.92303ZM8.00002 9.84611C7.63488 9.84611 7.27795 9.73783 6.97435 9.53497C6.67075 9.33211 6.43413 9.04378 6.2944 8.70644C6.15467 8.3691 6.11811 7.9979 6.18934 7.63978C6.26057 7.28167 6.4364 6.95272 6.69459 6.69453C6.95278 6.43634 7.28173 6.26051 7.63985 6.18928C7.99797 6.11805 8.36917 6.1546 8.70651 6.29433C9.04385 6.43407 9.33218 6.67069 9.53504 6.97429C9.7379 7.27788 9.84617 7.63482 9.84617 7.99996C9.84617 8.48959 9.65167 8.95917 9.30545 9.30539C8.95923 9.65161 8.48965 9.84611 8.00002 9.84611Z" fill="white"/>
</svg>
