<svg width="146" height="26" viewBox="0 0 146 26" fill="none" xmlns="http://www.w3.org/2000/svg">
<path d="M2.55273 0.40625H6.73633L13.7324 19.6719L20.7109 0.40625H24.9121L15.4023 26H12.0449L2.55273 0.40625ZM0.443359 0.40625H4.53906L5.27734 18.1074V26H0.443359V0.40625ZM22.9082 0.40625H27.0215V26H22.1875V18.1074L22.9082 0.40625ZM42.4375 4.29102L35.1426 26H30.0273L39.5898 0.40625H42.8594L42.4375 4.29102ZM48.5371 26L41.207 4.29102L40.7676 0.40625H44.0547L53.6699 26H48.5371ZM48.2031 16.4902V20.3047H34.4746V16.4902H48.2031ZM89.3008 4.29102L82.0059 26H76.8906L86.4531 0.40625H89.7227L89.3008 4.29102ZM95.4004 26L88.0703 4.29102L87.6309 0.40625H90.918L100.533 26H95.4004ZM95.0664 16.4902V20.3047H81.3379V16.4902H95.0664ZM103.17 0.40625H112.469C114.414 0.40625 116.084 0.699219 117.479 1.28516C118.873 1.87109 119.945 2.73828 120.695 3.88672C121.445 5.03516 121.82 6.44727 121.82 8.12305C121.82 9.44727 121.586 10.5957 121.117 11.5684C120.648 12.541 119.986 13.3555 119.131 14.0117C118.287 14.668 117.291 15.1836 116.143 15.5586L114.631 16.332H106.422L106.387 12.5176H112.521C113.518 12.5176 114.344 12.3418 115 11.9902C115.656 11.6387 116.148 11.1523 116.477 10.5312C116.816 9.91016 116.986 9.20117 116.986 8.4043C116.986 7.54883 116.822 6.81055 116.494 6.18945C116.166 5.55664 115.668 5.07031 115 4.73047C114.332 4.39063 113.488 4.2207 112.469 4.2207H108.004V26H103.17V0.40625ZM117.619 26L111.695 14.5391L116.811 14.5215L122.805 25.7539V26H117.619ZM133.703 26H128.184L128.219 22.2031H133.703C135.191 22.2031 136.439 21.875 137.447 21.2188C138.455 20.5508 139.217 19.5957 139.732 18.3535C140.248 17.0996 140.506 15.5996 140.506 13.8535V12.5352C140.506 11.1875 140.359 9.99805 140.066 8.9668C139.773 7.93555 139.34 7.06836 138.766 6.36523C138.203 5.66211 137.506 5.12891 136.674 4.76562C135.842 4.40234 134.887 4.2207 133.809 4.2207H128.078V0.40625H133.809C135.52 0.40625 137.078 0.693359 138.484 1.26758C139.902 1.8418 141.127 2.66797 142.158 3.74609C143.201 4.8125 143.998 6.08984 144.549 7.57812C145.111 9.06641 145.393 10.7305 145.393 12.5703V13.8535C145.393 15.6816 145.111 17.3457 144.549 18.8457C143.998 20.334 143.201 21.6113 142.158 22.6777C141.127 23.7441 139.896 24.5645 138.467 25.1387C137.037 25.7129 135.449 26 133.703 26ZM130.891 0.40625V26H126.057V0.40625H130.891Z" fill="white" fill-opacity="0.8"/>
<path d="M60.1562 0.40625L65.2715 9.5293L70.4043 0.40625H75.959L68.3652 13.0977L76.1523 26H70.5449L65.2715 16.7012L60.0156 26H54.3906L62.1777 13.0977L54.584 0.40625H60.1562Z" fill="#D33F55" fill-opacity="0.8"/>
</svg>
