<svg width="100" height="100" viewBox="0 0 100 100" fill="none" xmlns="http://www.w3.org/2000/svg">
<path d="M50 100C77.6142 100 100 77.6142 100 50C100 22.3858 77.6142 0 50 0C22.3858 0 0 22.3858 0 50C0 77.6142 22.3858 100 50 100Z" fill="#F2F2F2"/>
<path d="M50 20.5508C36.503 20.5508 25.5833 22.2735 25.5833 24.4032V75.6105C25.5833 77.7266 36.5165 79.4493 50 79.4493C63.4834 79.4493 74.4167 77.7266 74.4167 75.6105V24.4168C74.4303 22.2735 63.497 20.5508 50 20.5508ZM38.0765 72.5991C38.0759 72.7758 38.0381 72.9505 37.9657 73.1117C37.8933 73.273 37.7877 73.4172 37.656 73.535C37.3838 73.7628 37.0332 73.8748 36.6793 73.847C35.4178 73.6978 34.1563 73.535 32.9083 73.3451C32.6111 73.3027 32.3391 73.1545 32.1422 72.9278C31.9454 72.7011 31.8369 72.411 31.8367 72.1107V69.6962C31.8371 69.517 31.8757 69.34 31.9499 69.1769C32.024 69.0139 32.1321 68.8685 32.2668 68.7504C32.4016 68.6323 32.5599 68.5443 32.7314 68.4922C32.9028 68.4401 33.0833 68.4251 33.261 68.4482C34.4954 68.6246 35.7298 68.7874 36.9642 68.923C37.27 68.9594 37.5518 69.1064 37.7567 69.3363C37.9616 69.5662 38.0753 69.863 38.0765 70.171V72.5991ZM38.0765 63.8226C38.0785 63.9998 38.042 64.1753 37.9694 64.3369C37.8967 64.4986 37.7898 64.6425 37.656 64.7586C37.5226 64.8924 37.3603 64.9937 37.1815 65.0548C37.0028 65.116 36.8124 65.1353 36.6251 65.1113C35.3635 64.9621 34.102 64.7993 32.854 64.6094C32.5556 64.5697 32.282 64.4223 32.0846 64.195C31.8873 63.9677 31.7798 63.676 31.7824 63.375V60.9197C31.781 60.7394 31.8191 60.5609 31.8941 60.3968C31.9691 60.2328 32.0792 60.0872 32.2165 59.9702C32.3503 59.8526 32.5085 59.7661 32.6797 59.7168C32.8509 59.6676 33.0309 59.6568 33.2067 59.6853C34.4411 59.8617 35.6755 60.0245 36.9099 60.1601C37.2157 60.1905 37.4992 60.3339 37.7049 60.5621C37.9106 60.7904 38.0237 61.0872 38.0222 61.3945L38.0765 63.8226ZM38.0765 55.0597C38.0759 55.2365 38.0381 55.4112 37.9657 55.5724C37.8933 55.7336 37.7877 55.8779 37.656 55.9957C37.3838 56.2235 37.0332 56.3355 36.6793 56.3077C35.4178 56.1585 34.1563 55.9957 32.8947 55.8058C32.5988 55.7574 32.3298 55.6053 32.136 55.3766C31.9421 55.1479 31.836 54.8577 31.8367 54.5578V52.1433C31.8368 51.9646 31.8753 51.788 31.9496 51.6255C32.0239 51.463 32.1323 51.3183 32.2673 51.2013C32.4023 51.0842 32.5609 50.9976 32.7324 50.9471C32.9038 50.8967 33.0841 50.8836 33.261 50.9089C34.4954 51.0852 35.7298 51.248 36.9642 51.3837C37.2711 51.4172 37.5547 51.5634 37.7602 51.7939C37.9656 52.0244 38.0783 52.3229 38.0765 52.6316V55.0597ZM38.0765 46.4868C38.0765 46.6386 38.0437 46.7887 37.9805 46.9268C37.9173 47.0649 37.8252 47.1878 37.7102 47.2871C37.5965 47.3881 37.463 47.4643 37.3182 47.511C37.1734 47.5577 37.0206 47.5738 36.8692 47.5584C35.5127 47.3956 34.1563 47.2193 32.7998 47.0158C32.5458 46.974 32.315 46.8432 32.1485 46.6469C31.982 46.4506 31.8907 46.2015 31.8909 45.9442V43.2312C31.8908 43.0773 31.9234 42.9252 31.9865 42.7849C32.0497 42.6445 32.1419 42.5192 32.2572 42.4173C32.3762 42.3166 32.5148 42.2417 32.6642 42.1973C32.8136 42.1529 32.9707 42.1401 33.1253 42.1596C34.4818 42.363 35.8383 42.5394 37.1948 42.6886C37.461 42.7125 37.7083 42.8364 37.8869 43.0352C38.0656 43.2339 38.1624 43.493 38.1579 43.7602L38.0765 46.4868ZM48.1145 73.318C48.1146 73.4854 48.081 73.6511 48.0157 73.8052C47.9505 73.9593 47.8549 74.0987 47.7347 74.2152C47.6145 74.3316 47.472 74.4227 47.3159 74.4829C47.1598 74.5432 46.9931 74.5714 46.8258 74.566C45.5507 74.566 44.2892 74.471 43.0141 74.4032C42.695 74.3858 42.3948 74.2467 42.1752 74.0145C41.9556 73.7824 41.8335 73.4748 41.834 73.1552V70.7136C41.834 70.5433 41.869 70.3748 41.9366 70.2185C42.0043 70.0621 42.1032 69.9213 42.2273 69.8047C42.3508 69.6856 42.4979 69.5938 42.6592 69.5354C42.8205 69.477 42.9922 69.4532 43.1633 69.4656C44.4113 69.4656 45.6457 69.5877 46.8936 69.6148C47.22 69.6287 47.5286 69.7673 47.7557 70.002C47.9829 70.2368 48.1113 70.5497 48.1145 70.8763V73.318ZM48.1145 64.5416C48.1151 64.7087 48.0817 64.8743 48.0165 65.0282C47.9512 65.1821 47.8553 65.3211 47.7347 65.4368C47.616 65.5556 47.4739 65.6483 47.3174 65.709C47.1609 65.7697 46.9935 65.7971 46.8258 65.7895C45.5507 65.7895 44.2892 65.7081 43.0141 65.6268C42.695 65.6094 42.3948 65.4703 42.1752 65.2381C41.9556 65.0059 41.8335 64.6983 41.834 64.3788V61.9371C41.8333 61.7637 41.8688 61.592 41.9382 61.4331C42.0076 61.2741 42.1093 61.1314 42.237 61.014C42.3646 60.8965 42.5153 60.807 42.6795 60.7511C42.8436 60.6952 43.0177 60.6741 43.1904 60.6891C44.4384 60.6891 45.6728 60.8112 46.9208 60.8519C47.247 60.859 47.5575 60.9936 47.7857 61.2269C48.0139 61.4602 48.1417 61.7736 48.1416 62.0999L48.1145 64.5416ZM48.1145 55.7787C48.1111 56.1156 47.9746 56.4374 47.7347 56.674C47.6141 56.7901 47.4717 56.8811 47.3157 56.9416C47.1597 57.0022 46.9931 57.0311 46.8258 57.0266C45.5507 57.0266 44.2892 56.9317 43.0141 56.8639C42.6962 56.8433 42.3978 56.7032 42.1788 56.4717C41.9599 56.2402 41.8367 55.9345 41.834 55.6159V53.1742C41.8425 52.8278 41.9832 52.4977 42.2273 52.2518C42.4851 52.0242 42.8196 51.903 43.1633 51.9127C44.4113 51.9941 45.6457 52.0483 46.8936 52.0755C47.2211 52.086 47.5316 52.2236 47.7595 52.4591C47.9873 52.6945 48.1147 53.0094 48.1145 53.337V55.7787ZM48.1145 47.1786C48.1145 47.3222 48.086 47.4645 48.0306 47.597C47.9752 47.7296 47.8941 47.8498 47.7919 47.9507C47.6896 48.0517 47.5684 48.1313 47.4352 48.1851C47.302 48.2388 47.1594 48.2655 47.0157 48.2638C45.6592 48.2638 44.3028 48.1688 42.8513 48.0738C42.5766 48.0599 42.3178 47.9409 42.1284 47.7414C41.939 47.5419 41.8336 47.2773 41.834 47.0022V44.2079C41.8333 44.0605 41.8631 43.9145 41.9215 43.7791C41.9798 43.6437 42.0655 43.5219 42.1731 43.4211C42.2809 43.3229 42.4072 43.2471 42.5446 43.1982C42.682 43.1493 42.8278 43.1282 42.9734 43.1362C44.3299 43.2176 45.6864 43.2719 47.0429 43.3126C47.3223 43.3197 47.588 43.4357 47.7831 43.6359C47.9783 43.8361 48.0874 44.1046 48.0874 44.3842L48.1145 47.1786ZM58.166 73.1552C58.1633 73.4738 58.0401 73.7796 57.8211 74.0111C57.6022 74.2426 57.3038 74.3827 56.9859 74.4032C55.7108 74.4032 54.4493 74.5388 53.1742 74.566C53.0069 74.5704 52.8403 74.5415 52.6843 74.481C52.5283 74.4204 52.3858 74.3294 52.2653 74.2133C52.1447 74.0976 52.0488 73.9585 51.9835 73.8046C51.9182 73.6507 51.8849 73.4852 51.8855 73.318V70.8763C51.8887 70.5497 52.0171 70.2368 52.2443 70.002C52.4714 69.7673 52.78 69.6287 53.1063 69.6148C54.3543 69.6148 55.5887 69.5334 56.8367 69.4656C57.0078 69.4532 57.1795 69.477 57.3408 69.5354C57.5021 69.5938 57.6492 69.6856 57.7726 69.8047C57.8968 69.9213 57.9957 70.0621 58.0634 70.2185C58.131 70.3748 58.1659 70.5433 58.166 70.7136V73.1552ZM58.166 64.3788C58.1665 64.6983 58.0444 65.0059 57.8248 65.2381C57.6052 65.4703 57.305 65.6094 56.9859 65.6268C55.7108 65.7081 54.4493 65.7624 53.1742 65.7895C53.0065 65.7971 52.8391 65.7697 52.6826 65.709C52.5261 65.6483 52.384 65.5556 52.2653 65.4368C52.1447 65.3211 52.0488 65.1821 51.9835 65.0282C51.9182 64.8743 51.8849 64.7087 51.8855 64.5416V62.0999C51.8854 61.7736 52.0132 61.4602 52.2414 61.2269C52.4696 60.9936 52.7801 60.859 53.1063 60.8519C54.3543 60.8519 55.5887 60.757 56.8367 60.6891C57.0095 60.6741 57.1835 60.6952 57.3476 60.7511C57.5118 60.807 57.6625 60.8965 57.7901 61.014C57.9178 61.1314 58.0195 61.2741 58.0889 61.4331C58.1583 61.592 58.1938 61.7637 58.1932 61.9371L58.166 64.3788ZM58.166 55.6159C58.1633 55.9345 58.0401 56.2402 57.8211 56.4717C57.6022 56.7032 57.3038 56.8433 56.9859 56.8639C55.7108 56.8639 54.4493 56.9859 53.1742 57.0266C53.0069 57.0311 52.8403 57.0022 52.6843 56.9416C52.5283 56.8811 52.3858 56.7901 52.2653 56.674C52.0254 56.4374 51.8889 56.1156 51.8855 55.7787V53.337C51.8853 53.0094 52.0126 52.6945 52.2405 52.4591C52.4684 52.2236 52.7789 52.086 53.1063 52.0755C54.3543 52.0755 55.5887 51.9941 56.8367 51.9127C57.1804 51.903 57.5149 52.0242 57.7726 52.2518C58.0168 52.4977 58.1575 52.8278 58.166 53.1742V55.6159ZM58.166 46.8394C58.1665 47.159 58.0444 47.4666 57.8248 47.6987C57.6052 47.9309 57.305 48.07 56.9859 48.0874C55.7108 48.1688 54.4493 48.2231 53.1742 48.2502C53.0065 48.2578 52.8391 48.2304 52.6826 48.1697C52.5261 48.1089 52.384 48.0162 52.2653 47.8975C52.1447 47.7818 52.0488 47.6427 51.9835 47.4888C51.9182 47.3349 51.8849 47.1694 51.8855 47.0022V44.3842C51.8854 44.1046 51.9946 43.8361 52.1897 43.6359C52.3849 43.4357 52.6505 43.3197 52.93 43.3126C54.2865 43.3126 55.643 43.2176 56.9995 43.1362C57.1451 43.1282 57.2909 43.1493 57.4283 43.1982C57.5657 43.2471 57.692 43.3229 57.7998 43.4211C57.9074 43.5219 57.993 43.6437 58.0514 43.7791C58.1097 43.9145 58.1395 44.0605 58.1389 44.2079L58.166 46.8394ZM68.1633 72.1107C68.1635 72.409 68.057 72.6974 67.8629 72.9239C67.6688 73.1503 67.4 73.2998 67.1053 73.3451C65.8437 73.535 64.5822 73.6978 63.3207 73.847C62.9668 73.8748 62.6162 73.7628 62.344 73.535C62.2122 73.4172 62.1067 73.273 62.0343 73.1117C61.9618 72.9505 61.9241 72.7758 61.9235 72.5991V70.171C61.9246 69.863 62.0384 69.5662 62.2433 69.3363C62.4481 69.1064 62.73 68.9594 63.0358 68.923C64.2702 68.7874 65.5046 68.6246 66.739 68.4482C66.9114 68.4352 67.0845 68.4578 67.2478 68.5144C67.4111 68.5711 67.5609 68.6608 67.6881 68.7778C67.8153 68.8948 67.9171 69.0367 67.9872 69.1947C68.0573 69.3527 68.0941 69.5234 68.0955 69.6962L68.1633 72.1107ZM68.1633 63.3343C68.1664 63.6333 68.0608 63.9232 67.8662 64.1503C67.6716 64.3773 67.4012 64.526 67.1053 64.5687C65.8437 64.7586 64.5822 64.9214 63.3207 65.0706C63.145 65.0916 62.9669 65.0746 62.7984 65.0208C62.6299 64.967 62.4749 64.8775 62.344 64.7586C62.2102 64.6425 62.1033 64.4986 62.0306 64.3369C61.958 64.1753 61.9215 63.9998 61.9235 63.8226V61.3945C61.922 61.0872 62.0351 60.7904 62.2409 60.5621C62.4466 60.3339 62.73 60.1905 63.0358 60.1601C64.2702 60.0245 65.5046 59.8617 66.739 59.6853C66.9149 59.6568 67.0948 59.6676 67.266 59.7168C67.4372 59.7661 67.5954 59.8526 67.7292 59.9702C67.8666 60.0872 67.9766 60.2328 68.0516 60.3968C68.1266 60.5609 68.1647 60.7394 68.1633 60.9197V63.3343ZM68.1633 54.5578C68.164 54.8577 68.0579 55.1479 67.864 55.3766C67.6701 55.6053 67.4011 55.7574 67.1053 55.8058C65.8437 55.9957 64.5822 56.1585 63.3207 56.3077C62.9668 56.3355 62.6162 56.2235 62.344 55.9957C62.2122 55.8779 62.1067 55.7336 62.0343 55.5724C61.9618 55.4112 61.9241 55.2365 61.9235 55.0597V52.6316C61.9217 52.3229 62.0344 52.0244 62.2398 51.7939C62.4453 51.5634 62.7289 51.4172 63.0358 51.3837C64.2702 51.248 65.5046 51.0852 66.739 50.9089C66.9106 50.8939 67.0835 50.9146 67.2468 50.9697C67.41 51.0249 67.5601 51.1132 67.6875 51.2291C67.8149 51.3451 67.917 51.4862 67.9872 51.6435C68.0574 51.8008 68.0943 51.971 68.0955 52.1433L68.1633 54.5578ZM68.1633 45.7949C68.1664 46.094 68.0608 46.3839 67.8662 46.6109C67.6716 46.838 67.4012 46.9866 67.1053 47.0293C65.8437 47.2193 64.5822 47.382 63.3207 47.5312C63.145 47.5523 62.9669 47.5353 62.7984 47.4815C62.6299 47.4276 62.4749 47.3382 62.344 47.2193C62.2102 47.1031 62.1033 46.9592 62.0306 46.7976C61.958 46.636 61.9215 46.4605 61.9235 46.2833V43.706C61.9187 43.4409 62.0136 43.1836 62.1895 42.9851C62.3653 42.7867 62.6093 42.6615 62.873 42.6343C64.2295 42.4851 65.586 42.3088 66.9425 42.1053C67.0971 42.0858 67.2542 42.0987 67.4036 42.143C67.5531 42.1874 67.6917 42.2623 67.8106 42.363C67.9259 42.465 68.0182 42.5903 68.0813 42.7306C68.1444 42.8709 68.177 43.0231 68.1769 43.1769L68.1633 45.7949ZM68.1633 36.8422C68.1633 37.1744 68.0323 37.4932 67.7986 37.7294C67.565 37.9656 67.2476 38.1001 66.9154 38.1037H33.0846C32.7524 38.1001 32.435 37.9656 32.2014 37.7294C31.9677 37.4932 31.8367 37.1744 31.8367 36.8422V28.0793C31.8367 27.747 31.9677 27.4282 32.2014 27.192C32.435 26.9558 32.7524 26.8213 33.0846 26.8177H66.9154C67.2476 26.8213 67.565 26.9558 67.7986 27.192C68.0323 27.4282 68.1633 27.747 68.1633 28.0793V36.8422Z" fill="#D33F55" fill-opacity="0.8"/>
<path d="M58.7765 35.5942C59.1211 35.5942 59.4004 35.3148 59.4004 34.9702C59.4004 34.6256 59.1211 34.3462 58.7765 34.3462C58.4318 34.3462 58.1525 34.6256 58.1525 34.9702C58.1525 35.3148 58.4318 35.5942 58.7765 35.5942Z" fill="#D33F55"/>
<path d="M41.8611 29.3272C41.5304 29.3254 41.2026 29.389 40.8966 29.5143C40.5906 29.6396 40.3123 29.8242 40.0778 30.0574C39.8434 30.2906 39.6573 30.5678 39.5303 30.8732C39.4034 31.1785 39.338 31.506 39.338 31.8367V33.0846C39.3127 33.4288 39.3586 33.7745 39.4729 34.1001C39.5871 34.4257 39.7674 34.7243 40.0022 34.9771C40.2371 35.2299 40.5216 35.4315 40.8379 35.5694C41.1543 35.7073 41.4957 35.7785 41.8407 35.7785C42.1858 35.7785 42.5272 35.7073 42.8435 35.5694C43.1599 35.4315 43.4444 35.2299 43.6793 34.9771C43.9141 34.7243 44.0944 34.4257 44.2086 34.1001C44.3229 33.7745 44.3688 33.4288 44.3435 33.0846V31.8367C44.3452 31.5089 44.2825 31.184 44.1587 30.8805C44.0349 30.577 43.8525 30.3008 43.622 30.0678C43.3915 29.8348 43.1174 29.6494 42.8152 29.5224C42.5131 29.3953 42.1889 29.329 41.8611 29.3272ZM43.1091 33.0846C43.0768 33.3949 42.9306 33.6822 42.6989 33.8911C42.4672 34.0999 42.1663 34.2155 41.8543 34.2155C41.5424 34.2155 41.2415 34.0999 41.0097 33.8911C40.778 33.6822 40.6319 33.3949 40.5996 33.0846V31.8367C40.5813 31.6609 40.6001 31.4833 40.6548 31.3153C40.7095 31.1473 40.7989 30.9927 40.9172 30.8615C41.0355 30.7302 41.1801 30.6253 41.3415 30.5535C41.5029 30.4816 41.6776 30.4445 41.8543 30.4445C42.031 30.4445 42.2057 30.4816 42.3671 30.5535C42.5286 30.6253 42.6731 30.7302 42.7914 30.8615C42.9097 30.9927 42.9991 31.1473 43.0538 31.3153C43.1085 31.4833 43.1274 31.6609 43.1091 31.8367V33.0846Z" fill="#D33F55"/>
<path d="M48.1145 29.3271C47.7856 29.3271 47.4599 29.3921 47.1562 29.5184C46.8525 29.6447 46.5767 29.8298 46.3448 30.063C46.1128 30.2962 45.9293 30.5729 45.8046 30.8773C45.68 31.1817 45.6168 31.5077 45.6186 31.8366V33.0846C45.5932 33.4288 45.6391 33.7744 45.7534 34.1001C45.8677 34.4257 46.0479 34.7242 46.2828 34.977C46.5176 35.2299 46.8021 35.4315 47.1185 35.5694C47.4348 35.7073 47.7762 35.7785 48.1213 35.7785C48.4663 35.7785 48.8077 35.7073 49.1241 35.5694C49.4404 35.4315 49.7249 35.2299 49.9598 34.977C50.1947 34.7242 50.3749 34.4257 50.4891 34.1001C50.6034 33.7744 50.6493 33.4288 50.624 33.0846V31.8366C50.624 31.1711 50.3596 30.5328 49.889 30.0622C49.4183 29.5915 48.78 29.3271 48.1145 29.3271ZM49.376 33.0846C49.3437 33.3949 49.1976 33.6822 48.9659 33.8911C48.7341 34.0999 48.4332 34.2155 48.1213 34.2155C47.8093 34.2155 47.5084 34.0999 47.2767 33.8911C47.0449 33.6822 46.8988 33.3949 46.8665 33.0846V31.8366C46.8482 31.6609 46.867 31.4833 46.9218 31.3153C46.9765 31.1473 47.0659 30.9927 47.1842 30.8614C47.3025 30.7302 47.447 30.6252 47.6084 30.5534C47.7699 30.4816 47.9446 30.4445 48.1213 30.4445C48.2979 30.4445 48.4727 30.4816 48.6341 30.5534C48.7955 30.6252 48.9401 30.7302 49.0584 30.8614C49.1766 30.9927 49.266 31.1473 49.3208 31.3153C49.3755 31.4833 49.3943 31.6609 49.376 31.8366V33.0846Z" fill="#D33F55"/>
<path d="M54.3814 29.3271C54.0525 29.3271 53.7268 29.3921 53.4231 29.5184C53.1194 29.6447 52.8437 29.8298 52.6117 30.063C52.3798 30.2962 52.1962 30.5729 52.0716 30.8773C51.947 31.1817 51.8837 31.5077 51.8855 31.8366V33.0846C51.8602 33.4288 51.9061 33.7744 52.0203 34.1001C52.1346 34.4257 52.3148 34.7242 52.5497 34.977C52.7846 35.2299 53.0691 35.4315 53.3854 35.5694C53.7018 35.7073 54.0431 35.7785 54.3882 35.7785C54.7333 35.7785 55.0747 35.7073 55.391 35.5694C55.7074 35.4315 55.9919 35.2299 56.2267 34.977C56.4616 34.7242 56.6418 34.4257 56.7561 34.1001C56.8704 33.7744 56.9163 33.4288 56.8909 33.0846V31.8366C56.8909 31.1711 56.6265 30.5328 56.1559 30.0622C55.6853 29.5915 55.047 29.3271 54.3814 29.3271ZM55.6158 33.0846C55.5835 33.3949 55.4374 33.6822 55.2057 33.8911C54.9739 34.0999 54.6731 34.2155 54.3611 34.2155C54.0491 34.2155 53.7482 34.0999 53.5165 33.8911C53.2848 33.6822 53.1386 33.3949 53.1063 33.0846V31.8366C53.088 31.6609 53.1069 31.4833 53.1616 31.3153C53.2163 31.1473 53.3057 30.9927 53.424 30.8614C53.5423 30.7302 53.6868 30.6252 53.8483 30.5534C54.0097 30.4816 54.1844 30.4445 54.3611 30.4445C54.5378 30.4445 54.7125 30.4816 54.8739 30.5534C55.0353 30.6252 55.1799 30.7302 55.2982 30.8614C55.4165 30.9927 55.5059 31.1473 55.5606 31.3153C55.6153 31.4833 55.6341 31.6609 55.6158 31.8366V33.0846Z" fill="#D33F55"/>
<path d="M63.1579 29.3271C62.4923 29.3271 61.854 29.5915 61.3834 30.0622C60.9128 30.5328 60.6484 31.1711 60.6484 31.8366V33.0846C60.6484 33.7502 60.9128 34.3885 61.3834 34.8591C61.854 35.3297 62.4923 35.5941 63.1579 35.5941C63.8234 35.5941 64.4617 35.3297 64.9324 34.8591C65.403 34.3885 65.6674 33.7502 65.6674 33.0846V31.8366C65.6674 31.1711 65.403 30.5328 64.9324 30.0622C64.4617 29.5915 63.8234 29.3271 63.1579 29.3271ZM64.4059 33.0846C64.4059 33.4156 64.2744 33.733 64.0403 33.9671C63.8063 34.2011 63.4889 34.3326 63.1579 34.3326C62.8269 34.3326 62.5095 34.2011 62.2754 33.9671C62.0414 33.733 61.9099 33.4156 61.9099 33.0846V31.8366C61.9099 31.5057 62.0414 31.1882 62.2754 30.9542C62.5095 30.7202 62.8269 30.5887 63.1579 30.5887C63.4889 30.5887 63.8063 30.7202 64.0403 30.9542C64.2744 31.1882 64.4059 31.5057 64.4059 31.8366V33.0846Z" fill="#D33F55"/>
</svg>
