<svg width="424" height="74" viewBox="0 0 424 74" fill="none" xmlns="http://www.w3.org/2000/svg">
<path d="M11.1578 63L10.4541 63.7105L10.4575 63.7139L11.1578 63ZM11.1578 11.1L11.8581 11.8139L11.8615 11.8105L11.1578 11.1ZM63.9578 11.1L63.2541 11.8105L63.2575 11.8139L63.9578 11.1ZM69.6578 55.6L68.7896 55.1039L68.7876 55.1073L69.6578 55.6ZM56.4578 68.6L55.9739 67.7249L55.9695 67.7273L56.4578 68.6ZM19.5578 55.1L18.8458 55.8022L18.8507 55.8071L19.5578 55.1ZM55.5578 55.1L54.8459 54.3978L54.8458 54.3979L55.5578 55.1ZM55.5578 19L54.8409 19.6973L54.8507 19.7071L55.5578 19ZM19.5578 19L20.2649 19.7071L20.2698 19.7022L19.5578 19ZM37.5578 72.3C27.1964 72.3 18.6551 68.9537 11.8581 62.2861L10.4575 63.7139C17.6605 70.7797 26.7193 74.3 37.5578 74.3V72.3ZM11.8615 62.2895C5.06255 55.5553 1.65781 47.1496 1.65781 37H-0.342194C-0.342194 47.6504 3.25307 56.578 10.4541 63.7105L11.8615 62.2895ZM1.65781 37C1.65781 26.8504 5.06236 18.4802 11.8581 11.8139L10.4575 10.3861C3.25327 17.4532 -0.342194 26.3496 -0.342194 37H1.65781ZM11.8615 11.8105C18.6591 5.07759 27.1993 1.69999 37.5578 1.69999V-0.300007C26.7163 -0.300007 17.6565 3.25573 10.4541 10.3895L11.8615 11.8105ZM37.5578 1.69999C47.9163 1.69999 56.4565 5.07759 63.2541 11.8105L64.6615 10.3895C57.4592 3.25573 48.3993 -0.300007 37.5578 -0.300007V1.69999ZM63.2575 11.8139C70.0533 18.4802 73.4578 26.8504 73.4578 37H75.4578C75.4578 26.3496 71.8624 17.4532 64.6581 10.3861L63.2575 11.8139ZM73.4578 37C73.4578 43.6358 71.8985 49.6633 68.7896 55.1039L70.5261 56.0961C73.8171 50.3367 75.4578 43.9642 75.4578 37H73.4578ZM68.7876 55.1073C65.747 60.4768 61.4821 64.6792 55.9739 67.7249L56.9417 69.4751C62.7668 66.2542 67.3019 61.7898 70.528 56.0928L68.7876 55.1073ZM55.9695 67.7273C50.532 70.7697 44.4028 72.3 37.5578 72.3V74.3C44.7128 74.3 51.1836 72.697 56.9461 69.4727L55.9695 67.7273ZM18.8507 55.8071C23.8505 60.8069 30.1105 63.3 37.5578 63.3V61.3C30.6052 61.3 24.8651 58.9931 20.2649 54.3929L18.8507 55.8071ZM37.5578 63.3C45.069 63.3 51.333 60.8086 56.2699 55.8021L54.8458 54.3979C50.316 58.9914 44.5799 61.3 37.5578 61.3V63.3ZM56.2698 55.8022C61.265 50.7376 63.7578 44.4473 63.7578 37H61.7578C61.7578 43.9527 59.4507 49.729 54.8459 54.3978L56.2698 55.8022ZM63.7578 37C63.7578 29.5526 61.2647 23.2927 56.2649 18.2929L54.8507 19.7071C59.4509 24.3073 61.7578 30.0474 61.7578 37H63.7578ZM56.2747 18.3028C51.3388 13.2279 45.0734 10.7 37.5578 10.7V12.7C44.5756 12.7 50.3102 15.0388 54.841 19.6972L56.2747 18.3028ZM37.5578 10.7C30.1061 10.7 23.8447 13.2296 18.8458 18.2978L20.2698 19.7022C24.871 15.0371 30.6095 12.7 37.5578 12.7V10.7ZM18.8507 18.2929C13.8509 23.2927 11.3578 29.5526 11.3578 37H13.3578C13.3578 30.0474 15.6647 24.3073 20.2649 19.7071L18.8507 18.2929ZM11.3578 37C11.3578 44.4473 13.8506 50.7376 18.8458 55.8022L20.2698 54.3978C15.665 49.729 13.3578 43.9527 13.3578 37H11.3578ZM130.645 2H131.645V0.999996H130.645V2ZM130.645 12.7V13.7H131.645V12.7H130.645ZM110.045 12.7V11.7H109.045V12.7H110.045ZM110.045 72V73H111.045V72H110.045ZM98.6453 72H97.6453V73H98.6453V72ZM98.6453 12.7H99.6453V11.7H98.6453V12.7ZM78.0453 12.7H77.0453V13.7H78.0453V12.7ZM78.0453 2V0.999996H77.0453V2H78.0453ZM129.645 2V12.7H131.645V2H129.645ZM130.645 11.7H110.045V13.7H130.645V11.7ZM109.045 12.7V72H111.045V12.7H109.045ZM110.045 71H98.6453V73H110.045V71ZM99.6453 72V12.7H97.6453V72H99.6453ZM98.6453 11.7H78.0453V13.7H98.6453V11.7ZM79.0453 12.7V2H77.0453V12.7H79.0453ZM78.0453 3H130.645V0.999996H78.0453V3ZM175.6 35.3L175.056 34.461L173.656 35.3693L175.117 36.1756L175.6 35.3ZM183.8 45.3L182.854 45.6251L182.859 45.6382L182.864 45.6511L183.8 45.3ZM177.9 67.4L178.533 68.1745L178.539 68.1691L177.9 67.4ZM148.1 70.6L147.666 71.501L147.673 71.5041L148.1 70.6ZM139.4 63.1L138.565 63.6509L138.571 63.6586L139.4 63.1ZM135.9 51.7V50.7H134.868L134.9 51.7312L135.9 51.7ZM147.1 51.7L148.096 51.6121L148.016 50.7H147.1V51.7ZM149.2 57.7L148.378 58.2692L148.383 58.2768L148.388 58.2843L149.2 57.7ZM153.8 61.5L153.379 62.4071L153.391 62.4125L153.8 61.5ZM169.9 59.7L169.268 58.9251L169.9 59.7ZM170.3 43.6L169.626 44.339V44.339L170.3 43.6ZM154.1 40.5H153.1V41.5H154.1V40.5ZM154.1 30.7V29.7H153.1V30.7H154.1ZM168.9 13.5L168.264 14.2719L168.271 14.2776L168.278 14.2831L168.9 13.5ZM151.9 13.5L152.522 14.2831L152.525 14.2809L151.9 13.5ZM148 20.6V21.6H148.893L148.994 20.7129L148 20.6ZM137 20.6L136.002 20.5439L135.942 21.6H137V20.6ZM144.1 6.2L143.465 5.42705L143.46 5.43177L144.1 6.2ZM176.7 6.2L176.06 6.96822L176.066 6.97346L176.072 6.97859L176.7 6.2ZM181.3 29L180.42 28.5259L180.415 28.5347L180.41 28.5437L181.3 29ZM175.117 36.1756C176.936 37.1791 178.503 38.4948 179.822 40.1283L181.378 38.8717C179.897 37.0385 178.131 35.5542 176.083 34.4244L175.117 36.1756ZM179.822 40.1283C181.148 41.77 182.158 43.6004 182.854 45.6251L184.746 44.9749C183.975 42.7329 182.852 40.6967 181.378 38.8717L179.822 40.1283ZM182.864 45.6511C183.619 47.6663 184 49.8134 184 52.1H186C186 49.5866 185.581 47.2004 184.736 44.9489L182.864 45.6511ZM184 52.1C184 58.0757 181.761 62.8915 177.261 66.6309L178.539 68.1691C183.506 64.0418 186 58.6577 186 52.1H184ZM177.267 66.6256C172.738 70.3255 167.105 72.2 160.3 72.2V74.2C167.495 74.2 173.595 72.2079 178.533 68.1744L177.267 66.6256ZM160.3 72.2C155.966 72.2 152.047 71.3599 148.527 69.6959L147.673 71.5041C151.486 73.3067 155.701 74.2 160.3 74.2V72.2ZM148.534 69.699C145.091 68.0415 142.329 65.6586 140.229 62.5414L138.571 63.6586C140.871 67.0747 143.909 69.6918 147.666 71.501L148.534 69.699ZM140.235 62.5492C138.144 59.3811 137.027 55.7636 136.9 51.6688L134.9 51.7312C135.039 56.1698 136.256 60.1522 138.565 63.6508L140.235 62.5492ZM135.9 52.7H147.1V50.7H135.9V52.7ZM146.104 51.7879C146.318 54.2132 147.071 56.382 148.378 58.2692L150.022 57.1308C148.929 55.5513 148.282 53.7201 148.096 51.6121L146.104 51.7879ZM148.388 58.2843C149.689 60.0906 151.357 61.4682 153.379 62.407L154.221 60.593C152.51 59.7984 151.111 58.6428 150.012 57.1157L148.388 58.2843ZM153.391 62.4125C155.469 63.344 157.778 63.8 160.3 63.8V61.8C158.022 61.8 155.998 61.3893 154.209 60.5875L153.391 62.4125ZM160.3 63.8C164.353 63.8 167.789 62.7127 170.532 60.4749L169.268 58.9251C166.944 60.8206 163.98 61.8 160.3 61.8V63.8ZM170.532 60.4749C173.303 58.214 174.7 55.227 174.7 51.6H172.7C172.7 54.6397 171.563 57.0527 169.268 58.9251L170.532 60.4749ZM174.7 51.6C174.7 48.0727 173.463 45.1306 170.974 42.861L169.626 44.339C171.67 46.2027 172.7 48.594 172.7 51.6H174.7ZM170.974 42.861C168.492 40.5978 165.303 39.5 161.5 39.5V41.5C164.897 41.5 167.575 42.4688 169.626 44.339L170.974 42.861ZM161.5 39.5H154.1V41.5H161.5V39.5ZM155.1 40.5V30.7H153.1V40.5H155.1ZM154.1 31.7H161.5V29.7H154.1V31.7ZM161.5 31.7C164.907 31.7 167.766 30.6995 169.982 28.6311L168.618 27.1689C166.834 28.8338 164.493 29.7 161.5 29.7V31.7ZM169.982 28.6311C172.201 26.5605 173.3 23.8881 173.3 20.7H171.3C171.3 23.3785 170.399 25.5062 168.618 27.1689L169.982 28.6311ZM173.3 20.7C173.3 17.4079 172.037 14.7145 169.522 12.7169L168.278 14.2831C170.296 15.8855 171.3 17.9921 171.3 20.7H173.3ZM169.536 12.7281C167.059 10.6883 163.955 9.7 160.3 9.7V11.7C163.579 11.7 166.208 12.5783 168.264 14.2719L169.536 12.7281ZM160.3 9.7C156.829 9.7 153.803 10.6971 151.275 12.7191L152.525 14.2809C154.664 12.5695 157.238 11.7 160.3 11.7V9.7ZM151.278 12.7169C148.799 14.6857 147.369 17.2958 147.006 20.4871L148.994 20.7129C149.298 18.0376 150.468 15.9143 152.522 14.2831L151.278 12.7169ZM148 19.6H137V21.6H148V19.6ZM137.998 20.6561C138.317 14.9878 140.562 10.45 144.74 6.96822L143.46 5.43177C138.838 9.28329 136.35 14.3455 136.002 20.5439L137.998 20.6561ZM144.734 6.97292C149.007 3.46583 154.144 1.69999 160.2 1.69999V-0.300007C153.723 -0.300007 148.127 1.60082 143.466 5.42707L144.734 6.97292ZM160.2 1.69999C166.604 1.69999 171.866 3.47374 176.06 6.96822L177.34 5.43177C172.734 1.59291 166.996 -0.300007 160.2 -0.300007V1.69999ZM176.072 6.97859C180.294 10.3813 182.4 14.8572 182.4 20.5H184.4C184.4 14.2762 182.039 9.21864 177.328 5.4214L176.072 6.97859ZM182.4 20.5C182.4 23.4078 181.738 26.0773 180.42 28.5259L182.18 29.4741C183.662 26.7227 184.4 23.7255 184.4 20.5H182.4ZM180.41 28.5437C179.157 30.9871 177.377 32.9556 175.056 34.461L176.144 36.139C178.757 34.4444 180.776 32.2129 182.19 29.4563L180.41 28.5437ZM242.51 31.9L243.207 31.1824L242.51 31.9ZM242.51 65.4L241.814 64.6824L242.51 65.4ZM198.81 72H197.81V73H198.81V72ZM198.81 2V0.999996H197.81V2H198.81ZM210.31 2H211.31V0.999996H210.31V2ZM210.31 25.3H209.31V26.3H210.31V25.3ZM258.41 2V0.999996H257.41V2H258.41ZM269.91 2H270.91V0.999996H269.91V2ZM269.91 72V73H270.91V72H269.91ZM258.41 72H257.41V73H258.41V72ZM233.81 57.7L234.497 58.4265L234.498 58.4259L233.81 57.7ZM233.81 39.6L233.113 40.3167L233.123 40.3263L233.133 40.3355L233.81 39.6ZM210.31 36V35H209.31V36H210.31ZM210.31 61.2H209.31V62.2H210.31V61.2ZM225.11 26.3C231.95 26.3 237.49 28.4208 241.814 32.6176L243.207 31.1824C238.464 26.5792 232.403 24.3 225.11 24.3V26.3ZM241.814 32.6176C246.137 36.8139 248.31 42.1475 248.31 48.7H250.31C250.31 41.6525 247.95 35.7861 243.207 31.1824L241.814 32.6176ZM248.31 48.7C248.31 55.1828 246.139 60.4841 241.814 64.6824L243.207 66.1176C247.948 61.5159 250.31 55.6839 250.31 48.7H248.31ZM241.814 64.6824C237.49 68.8792 231.95 71 225.11 71V73C232.403 73 238.464 70.7208 243.207 66.1176L241.814 64.6824ZM225.11 71H198.81V73H225.11V71ZM199.81 72V2H197.81V72H199.81ZM198.81 3H210.31V0.999996H198.81V3ZM209.31 2V25.3H211.31V2H209.31ZM210.31 26.3H225.11V24.3H210.31V26.3ZM258.41 3H269.91V0.999996H258.41V3ZM268.91 2V72H270.91V2H268.91ZM269.91 71H258.41V73H269.91V71ZM259.41 72V2H257.41V72H259.41ZM224.31 62.2C228.394 62.2 231.819 60.9601 234.497 58.4265L233.123 56.9735C230.868 59.1066 227.959 60.2 224.31 60.2V62.2ZM234.498 58.4259C237.242 55.8266 238.61 52.5256 238.61 48.6H236.61C236.61 52.0077 235.445 54.7734 233.122 56.974L234.498 58.4259ZM238.61 48.6C238.61 44.6741 237.241 41.4004 234.488 38.8645L233.133 40.3355C235.446 42.4662 236.61 45.1925 236.61 48.6H238.61ZM234.508 38.8833C231.831 36.2786 228.402 35 224.31 35V37C227.951 37 230.856 38.1214 233.113 40.3167L234.508 38.8833ZM224.31 35H210.31V37H224.31V35ZM209.31 36V61.2H211.31V36H209.31ZM210.31 62.2H224.31V60.2H210.31V62.2ZM328.077 35.5L327.533 34.661L326.066 35.6125L327.63 36.3944L328.077 35.5ZM335.277 42.3L334.411 42.8003L334.418 42.8117L334.425 42.823L335.277 42.3ZM331.677 66.3L331.006 65.5584L331.001 65.5638L331.677 66.3ZM287.677 72H286.677V73H287.677V72ZM287.677 2V0.999996H286.677V2H287.677ZM330.377 7.2L329.703 7.93877L329.71 7.94493L329.717 7.95097L330.377 7.2ZM333.977 28.9L334.863 29.364L334.868 29.3555L333.977 28.9ZM321.977 15.2L321.284 15.9203L321.297 15.9334L321.311 15.9459L321.977 15.2ZM298.977 12.6V11.6H297.977V12.6H298.977ZM298.977 30.8H297.977V31.8H298.977V30.8ZM322.077 28.2L322.771 28.9203L322.077 28.2ZM323.277 58.2L322.595 57.4689L322.589 57.4747L322.583 57.4806L323.277 58.2ZM323.277 44L322.583 44.7194L322.589 44.7253L322.595 44.7311L323.277 44ZM298.977 41.2V40.2H297.977V41.2H298.977ZM298.977 61H297.977V62H298.977V61ZM327.63 36.3944C330.52 37.8392 332.775 39.9679 334.411 42.8003L336.143 41.7997C334.313 38.6321 331.768 36.2274 328.525 34.6056L327.63 36.3944ZM334.425 42.823C336.119 45.5829 336.977 48.7648 336.977 52.4H338.977C338.977 48.4352 338.036 44.8838 336.13 41.777L334.425 42.823ZM336.977 52.4C336.977 57.5727 335.005 61.9403 331.006 65.5585L332.348 67.0415C336.749 63.0597 338.977 58.1606 338.977 52.4H336.977ZM331.001 65.5638C327.065 69.1818 322.245 71 316.477 71V73C322.709 73 328.023 71.0182 332.354 67.0362L331.001 65.5638ZM316.477 71H287.677V73H316.477V71ZM288.677 72V2H286.677V72H288.677ZM287.677 3H315.877V0.999996H287.677V3ZM315.877 3C321.532 3 326.114 4.66388 329.703 7.93877L331.051 6.46123C327.041 2.80278 321.956 0.999996 315.877 0.999996V3ZM329.717 7.95097C333.369 11.1618 335.177 15.1552 335.177 20H337.177C337.177 14.5782 335.12 10.0382 331.038 6.44903L329.717 7.95097ZM335.177 20C335.177 22.9003 334.485 25.7116 333.087 28.4445L334.868 29.3555C336.403 26.3551 337.177 23.233 337.177 20H335.177ZM333.091 28.436C331.698 31.0955 329.845 33.1616 327.533 34.661L328.622 36.339C331.243 34.6384 333.323 32.3045 334.863 29.364L333.091 28.436ZM325.777 21.7C325.777 18.7696 324.738 16.3241 322.643 14.4541L321.311 15.9459C322.95 17.4093 323.777 19.2971 323.777 21.7H325.777ZM322.671 14.4797C320.666 12.5493 318.143 11.6 315.177 11.6V13.6C317.679 13.6 319.688 14.384 321.284 15.9203L322.671 14.4797ZM315.177 11.6H298.977V13.6H315.177V11.6ZM297.977 12.6V30.8H299.977V12.6H297.977ZM298.977 31.8H315.177V29.8H298.977V31.8ZM315.177 31.8C318.202 31.8 320.762 30.8553 322.771 28.9203L321.384 27.4797C319.793 29.0114 317.753 29.8 315.177 29.8V31.8ZM322.771 28.9203C324.775 26.9901 325.777 24.5594 325.777 21.7H323.777C323.777 24.0406 322.979 25.9432 321.384 27.4797L322.771 28.9203ZM315.777 62C319.064 62 321.826 60.9918 323.972 58.9194L322.583 57.4806C320.862 59.1416 318.624 60 315.777 60V62ZM323.96 58.9311C326.173 56.8653 327.277 54.2289 327.277 51.1H325.277C325.277 53.7044 324.382 55.8014 322.595 57.4689L323.96 58.9311ZM327.277 51.1C327.277 47.9711 326.173 45.3347 323.96 43.2689L322.595 44.7311C324.382 46.3986 325.277 48.4956 325.277 51.1H327.277ZM323.972 43.2806C321.826 41.2082 319.064 40.2 315.777 40.2V42.2C318.624 42.2 320.862 43.0584 322.583 44.7194L323.972 43.2806ZM315.777 40.2H298.977V42.2H315.777V40.2ZM297.977 41.2V61H299.977V41.2H297.977ZM298.977 62H315.777V60H298.977V62ZM395.733 31.9L396.429 31.1824L395.733 31.9ZM395.733 65.4L395.036 64.6824L395.733 65.4ZM352.033 72H351.033V73H352.033V72ZM352.033 2V0.999996H351.033V2H352.033ZM363.533 2H364.533V0.999996H363.533V2ZM363.533 25.3H362.533V26.3H363.533V25.3ZM411.633 2V0.999996H410.633V2H411.633ZM423.133 2H424.133V0.999996H423.133V2ZM423.133 72V73H424.133V72H423.133ZM411.633 72H410.633V73H411.633V72ZM387.033 57.7L387.72 58.4265L387.721 58.4259L387.033 57.7ZM387.033 39.6L386.335 40.3167L386.345 40.3263L386.355 40.3355L387.033 39.6ZM363.533 36V35H362.533V36H363.533ZM363.533 61.2H362.533V62.2H363.533V61.2ZM378.333 26.3C385.173 26.3 390.712 28.4208 395.036 32.6176L396.429 31.1824C391.687 26.5792 385.626 24.3 378.333 24.3V26.3ZM395.036 32.6176C399.36 36.8139 401.533 42.1475 401.533 48.7H403.533C403.533 41.6525 401.172 35.7861 396.429 31.1824L395.036 32.6176ZM401.533 48.7C401.533 55.1828 399.362 60.4841 395.036 64.6824L396.429 66.1176C401.17 61.5159 403.533 55.6839 403.533 48.7H401.533ZM395.036 64.6824C390.712 68.8792 385.173 71 378.333 71V73C385.626 73 391.687 70.7208 396.429 66.1176L395.036 64.6824ZM378.333 71H352.033V73H378.333V71ZM353.033 72V2H351.033V72H353.033ZM352.033 3H363.533V0.999996H352.033V3ZM362.533 2V25.3H364.533V2H362.533ZM363.533 26.3H378.333V24.3H363.533V26.3ZM411.633 3H423.133V0.999996H411.633V3ZM422.133 2V72H424.133V2H422.133ZM423.133 71H411.633V73H423.133V71ZM412.633 72V2H410.633V72H412.633ZM377.533 62.2C381.617 62.2 385.042 60.9601 387.72 58.4265L386.346 56.9735C384.091 59.1066 381.182 60.2 377.533 60.2V62.2ZM387.721 58.4259C390.464 55.8266 391.833 52.5256 391.833 48.6H389.833C389.833 52.0077 388.668 54.7734 386.345 56.974L387.721 58.4259ZM391.833 48.6C391.833 44.6741 390.464 41.4004 387.71 38.8645L386.355 40.3355C388.669 42.4662 389.833 45.1925 389.833 48.6H391.833ZM387.73 38.8833C385.053 36.2786 381.625 35 377.533 35V37C381.174 37 384.079 38.1214 386.335 40.3167L387.73 38.8833ZM377.533 35H363.533V37H377.533V35ZM362.533 36V61.2H364.533V36H362.533ZM363.533 62.2H377.533V60.2H363.533V62.2Z" fill="black" fill-opacity="0.1"/>
</svg>
