<svg width="16" height="16" viewBox="0 0 16 16" fill="none" xmlns="http://www.w3.org/2000/svg">
<path d="M15.948 7.11001C14.5821 3.9193 12.0322 1.38252 8.83441 0.0331246C8.70562 -0.0149501 8.56311 -0.0105493 8.43753 0.045372C8.31195 0.101293 8.21335 0.20427 8.16292 0.332152C8.13544 0.396144 8.12098 0.464969 8.12038 0.534609C8.11978 0.604249 8.13304 0.673305 8.15941 0.737763C8.18578 0.80222 8.22472 0.860783 8.27396 0.910034C8.3232 0.959285 8.38176 0.998237 8.44621 1.02462C11.3939 2.26994 13.7443 4.60905 15.0037 7.55067C15.06 7.67542 15.1629 7.77322 15.2903 7.82321C15.4177 7.87319 15.5596 7.87141 15.6857 7.81823C15.7503 7.78996 15.8085 7.74897 15.8569 7.6977C15.9053 7.64643 15.9428 7.58594 15.9673 7.51984C15.9918 7.45374 16.0027 7.38337 15.9994 7.31296C15.9961 7.24254 15.9786 7.17352 15.948 7.11001Z" fill="white"/>
<path d="M8.17342 3.85769C9.96014 4.61027 11.3855 6.02624 12.1499 7.80794C12.1905 7.89583 12.2546 7.97078 12.3352 8.02448C12.4157 8.07818 12.5096 8.10855 12.6063 8.11221C12.6771 8.11168 12.747 8.09556 12.8109 8.065C12.9315 8.00589 13.0249 7.90275 13.0718 7.77684C13.1186 7.65093 13.1154 7.51185 13.0627 7.38826C12.1963 5.36542 10.579 3.75753 8.55113 2.90291C8.42626 2.85858 8.28923 2.86315 8.16759 2.9157C8.04595 2.96825 7.9487 3.06489 7.89538 3.1862C7.84606 3.31237 7.84746 3.45272 7.89928 3.57789C7.95111 3.70305 8.04934 3.80331 8.17342 3.85769Z" fill="white"/>
<path d="M13.2254 10.0897C13.1116 9.95677 12.9704 9.85007 12.8115 9.7769C12.6525 9.70373 12.4796 9.66584 12.3047 9.66584C12.1297 9.66584 11.9568 9.70373 11.7979 9.7769C11.639 9.85007 11.4978 9.95677 11.384 10.0897C10.9538 10.5146 10.5237 10.9448 10.0987 11.3802C10.0798 11.4083 10.0555 11.4322 10.0271 11.4506C9.99877 11.469 9.96701 11.4815 9.93372 11.4874C9.90043 11.4933 9.8663 11.4924 9.83336 11.4848C9.80042 11.4772 9.76936 11.463 9.74201 11.4432C9.46397 11.291 9.16494 11.1704 8.89739 11.0025C7.66964 10.2068 6.58139 9.21426 5.67634 8.06474C5.2038 7.50765 4.81337 6.88581 4.51696 6.21814C4.48472 6.16278 4.47386 6.09754 4.48643 6.03472C4.49899 5.9719 4.53411 5.91585 4.58516 5.87714C5.01533 5.45746 5.43501 5.03254 5.85994 4.60237C5.99862 4.48717 6.11022 4.34284 6.18682 4.17964C6.26342 4.01644 6.30313 3.83836 6.30313 3.65808C6.30313 3.4778 6.26342 3.29973 6.18682 3.13653C6.11022 2.97332 5.99862 2.82899 5.85994 2.71379C5.52419 2.3728 5.18845 2.04231 4.84746 1.70132L3.79825 0.652111C3.68027 0.525709 3.53838 0.423986 3.38079 0.352844C3.22319 0.281702 3.05304 0.242552 2.8802 0.237671C2.70625 0.243404 2.53514 0.283434 2.3767 0.355453C2.21826 0.427473 2.07559 0.530067 1.95689 0.657354C1.52147 1.08228 1.10704 1.52295 0.661126 1.94263C0.268545 2.31289 0.0337058 2.82016 0.00538174 3.35906C-0.031989 4.24286 0.125625 5.12405 0.467034 5.9401C1.12136 7.63652 2.06374 9.20717 3.25266 10.5828C4.81624 12.4619 6.76427 13.9842 8.96559 15.0472C9.94217 15.5632 11.0127 15.8772 12.1132 15.9705H12.3178C12.6538 15.9847 12.9887 15.9238 13.2982 15.7922C13.6076 15.6606 13.8838 15.4617 14.1067 15.2098C14.4739 14.7954 14.8884 14.4177 15.2818 14.0242C15.4179 13.9085 15.5271 13.7646 15.6021 13.6024C15.677 13.4403 15.7158 13.2638 15.7158 13.0852C15.7158 12.9066 15.677 12.7301 15.6021 12.5679C15.5271 12.4058 15.4179 12.2619 15.2818 12.1461C14.6033 11.4607 13.9178 10.7752 13.2254 10.0897ZM14.5473 13.295L14.1539 13.6832C13.8811 13.9455 13.6031 14.2078 13.3303 14.5173C13.2075 14.6601 13.0528 14.7721 12.8787 14.844C12.7046 14.916 12.5161 14.9461 12.3283 14.9318H12.1814C11.2164 14.8485 10.278 14.572 9.42199 14.1186C7.35685 13.1143 5.52782 11.684 4.0553 9.92183C2.93595 8.64072 2.04834 7.1744 1.43229 5.58862C1.14463 4.91654 1.00851 4.18935 1.03361 3.45873C1.04561 3.17801 1.16595 2.91289 1.36934 2.71905C1.64214 2.45674 1.89394 2.19444 2.17198 1.92689L2.69659 1.40229C2.71377 1.36681 2.74061 1.33689 2.77401 1.31596C2.80741 1.29502 2.84603 1.28392 2.88545 1.28392C2.92487 1.28392 2.96349 1.29502 2.99689 1.31596C3.03029 1.33689 3.05712 1.36681 3.0743 1.40229C3.30512 1.62787 3.53071 1.85869 3.75629 2.08952L4.10253 2.43576L4.62713 2.96036L5.1255 3.45873C5.3196 3.65283 5.30911 3.68956 5.1255 3.86793L4.94713 4.04629C4.5904 4.41351 4.22843 4.77024 3.85072 5.13746C3.65346 5.32483 3.51964 5.56911 3.46791 5.8362C3.41619 6.10329 3.44915 6.37987 3.56219 6.62733C3.89329 7.38775 4.33526 8.09491 4.8737 8.72574C5.85412 9.95908 7.03098 11.0225 8.35705 11.8734C8.56164 11.9993 8.77149 12.1042 8.9551 12.1934L9.23838 12.335C9.43871 12.4533 9.66673 12.5166 9.89938 12.5186C10.0805 12.5177 10.2595 12.479 10.4248 12.4049C10.5901 12.3308 10.7381 12.223 10.8594 12.0884C11.2738 11.6635 11.6935 11.2491 12.1342 10.8137C12.1791 10.7552 12.2416 10.7129 12.3126 10.693C12.3859 10.7107 12.4508 10.7534 12.4962 10.8137C13.1956 11.5131 13.8951 12.2004 14.5946 12.8753C14.7152 13.059 14.731 13.1062 14.5473 13.295Z" fill="white"/>
</svg>
