<svg width="16" height="16" viewBox="0 0 16 16" fill="none" xmlns="http://www.w3.org/2000/svg">
<path d="M12.5752 9.91066C12.4342 9.74487 12.2592 9.61175 12.0621 9.52048C11.865 9.4292 11.6506 9.38194 11.4336 9.38194C11.2166 9.38194 11.0022 9.4292 10.8051 9.52048C10.608 9.61175 10.433 9.74487 10.292 9.91066L9.23819 10.9697C9.15038 10.8814 9.06256 10.8814 8.97475 10.7932C8.88693 10.7049 8.7113 10.7049 8.62348 10.6167C7.56293 9.91188 6.61537 9.04889 5.81338 8.05737C5.44694 7.63727 5.1504 7.16046 4.93523 6.64535L5.72557 5.85109L5.98902 5.58633C6.15474 5.43575 6.2872 5.25192 6.37787 5.04671C6.46853 4.8415 6.51537 4.61946 6.51537 4.39494C6.51537 4.17041 6.46853 3.94837 6.37787 3.74316C6.2872 3.53795 6.15474 3.35412 5.98902 3.20354L5.11086 2.32102C5.02304 2.23277 4.93523 2.05627 4.7596 1.96802C4.5773 1.74057 4.37121 1.53346 4.14489 1.35026C4.00215 1.18653 3.82675 1.05479 3.63009 0.963567C3.43342 0.872347 3.21987 0.823689 3.00328 0.820749C2.7867 0.823689 2.57315 0.872347 2.37648 0.963567C2.17982 1.05479 2.00442 1.18653 1.86168 1.35026L0.720079 2.49753C0.498845 2.69916 0.320876 2.94404 0.19706 3.21718C0.0732448 3.49032 0.00618746 3.78597 -8.73953e-06 4.08606C-0.0570779 4.96204 0.0933994 5.83914 0.439069 6.64535C1.05428 8.21344 1.91392 9.67314 2.98572 10.9697C4.43012 12.7115 6.22602 14.1252 8.25466 15.1175C9.19283 15.5799 10.2025 15.8783 11.2404 16H11.416C11.7841 16.0138 12.1504 15.9413 12.4857 15.7881C12.8211 15.6349 13.1163 15.4053 13.348 15.1175C13.5303 14.89 13.7363 14.6829 13.9627 14.4997L14.4017 14.0585C14.7165 13.7576 14.905 13.3472 14.9286 12.9112C14.9257 12.6935 14.8773 12.4789 14.7865 12.2813C14.6958 12.0836 14.5647 11.9074 14.4017 11.7639L12.5752 9.91066ZM13.8046 13.4407C13.7168 13.6172 13.5412 13.7055 13.3655 13.882C13.1393 14.0976 12.9335 14.334 12.7508 14.588C12.5961 14.7603 12.4061 14.8968 12.1939 14.9882C11.9816 15.0796 11.7522 15.1237 11.5214 15.1175H11.3458C10.4274 15.0132 9.53513 14.7442 8.7113 14.3232C6.79259 13.3922 5.08789 12.0698 3.70581 10.4402C2.6671 9.23392 1.83607 7.86187 1.24697 6.38059C0.972655 5.67896 0.847037 4.92751 0.878147 4.17431C0.893547 3.8057 1.05101 3.45757 1.31723 3.20354L2.45883 2.05627C2.52452 1.97891 2.60502 1.91562 2.69553 1.87014C2.78604 1.82465 2.88473 1.79792 2.98572 1.79152C3.0898 1.77789 3.19555 1.79581 3.28942 1.84298C3.3833 1.89015 3.46102 1.96442 3.51262 2.05627C3.73894 2.23947 3.94503 2.44658 4.12732 2.67403C4.22739 2.78304 4.34643 2.87276 4.47859 2.93879L5.35674 3.8213C5.43854 3.88295 5.50493 3.9629 5.55066 4.05481C5.59638 4.14671 5.62019 4.24805 5.62019 4.35081C5.62019 4.45356 5.59638 4.55491 5.55066 4.64681C5.50493 4.73872 5.43854 4.81867 5.35674 4.88032C5.29105 5.01313 5.20177 5.13276 5.0933 5.23333C4.82071 5.51973 4.52717 5.78522 4.21514 6.02759C4.11001 6.12703 4.03705 6.25593 4.00573 6.39757C3.97441 6.5392 3.98618 6.68702 4.03951 6.82185C4.34238 7.48465 4.72584 8.10715 5.18111 8.67513C6.04185 9.7251 7.04722 10.6463 8.16684 11.4109C8.34247 11.4992 8.43029 11.5874 8.60592 11.6757C8.78155 11.7639 8.86937 11.7639 8.95718 11.8522C9.06022 11.9224 9.18466 11.9536 9.30844 11.9404C9.40955 11.9345 9.5084 11.908 9.59898 11.8625C9.68956 11.817 9.76998 11.7534 9.83534 11.6757L10.9769 10.5284C11.0423 10.4507 11.1227 10.3871 11.2133 10.3416C11.3039 10.2961 11.4027 10.2696 11.5038 10.2637C11.6048 10.2701 11.7035 10.2968 11.794 10.3423C11.8845 10.3878 11.965 10.4511 12.0307 10.5284L13.8749 12.3817C13.9429 12.4542 13.9954 12.5399 14.0289 12.6337C14.0624 12.7275 14.0763 12.8272 14.0697 12.9266C14.0631 13.026 14.0362 13.123 13.9906 13.2115C13.9449 13.2999 13.8816 13.378 13.8046 13.4407ZM8.27222 3.20354C8.27361 3.1411 8.28997 3.07991 8.3199 3.02518C8.34984 2.97044 8.39247 2.92377 8.44418 2.88913C8.49589 2.85448 8.55516 2.83288 8.61695 2.82617C8.67874 2.81945 8.74123 2.82781 8.79911 2.85053C9.86902 3.04259 10.8519 3.56736 11.6092 4.35081C12.3888 5.11185 12.911 6.09964 13.1021 7.17486C13.1021 7.43961 13.0143 7.70437 12.7508 7.70437H12.663C12.4874 7.70437 12.2239 7.52786 12.2239 7.35136C12.0723 6.44703 11.6442 5.61263 10.9989 4.96416C10.3536 4.31569 9.52335 3.88538 8.62348 3.73305C8.56135 3.73165 8.50047 3.71522 8.446 3.68513C8.39154 3.65505 8.3451 3.6122 8.31062 3.56023C8.27615 3.50827 8.25466 3.44871 8.24797 3.38661C8.24129 3.32452 8.24961 3.26172 8.27222 3.20354ZM15.5609 7.52786C15.2975 7.52786 15.034 7.35136 15.034 7.17486C14.7879 5.5963 14.0501 4.13681 12.9267 3.00619C11.8032 1.87558 10.352 1.13206 8.78155 0.882525C8.71942 0.881129 8.65854 0.864691 8.60407 0.834606C8.54961 0.804521 8.50317 0.761677 8.46869 0.709709C8.43422 0.657741 8.41273 0.598183 8.40604 0.536087C8.39936 0.473992 8.40767 0.411192 8.43029 0.353016C8.43168 0.290574 8.44803 0.229389 8.47797 0.174655C8.50791 0.11992 8.55054 0.0732501 8.60225 0.0386048C8.65396 0.00395936 8.71323 -0.0176391 8.77501 -0.0243579C8.8368 -0.0310768 8.89929 -0.0227178 8.95718 9.73977e-06C10.7132 0.301466 12.3364 1.1325 13.6114 2.3828C14.8943 3.6381 15.7332 5.2808 16 7.06013C15.9981 7.17911 15.952 7.29308 15.8708 7.37963C15.7895 7.46619 15.679 7.51906 15.5609 7.52786Z" fill="#D33F55"/>
</svg>
