<svg width="273" height="84" viewBox="0 0 273 84" fill="none" xmlns="http://www.w3.org/2000/svg">
<path d="M52.7 59.3H51.7V60.3H52.7V59.3ZM59.6 59.3H60.6V58.3H59.6V59.3ZM59.6 83.6V84.6H60.6V83.6H59.6ZM49 83.6H48V84.6H49V83.6ZM49 70H50V69H49V70ZM0.900001 70H-0.0999999V71H0.900001V70ZM0.900001 -3.8147e-06V-1H-0.0999999V-3.8147e-06H0.900001ZM12.4 -3.8147e-06H13.4V-1H12.4V-3.8147e-06ZM12.4 59.3H11.4V60.3H12.4V59.3ZM41.3 59.3V60.3H42.3V59.3H41.3ZM41.3 -3.8147e-06V-1H40.3V-3.8147e-06H41.3ZM52.7 -3.8147e-06H53.7V-1H52.7V-3.8147e-06ZM52.7 60.3H59.6V58.3H52.7V60.3ZM58.6 59.3V83.6H60.6V59.3H58.6ZM59.6 82.6H49V84.6H59.6V82.6ZM50 83.6V70H48V83.6H50ZM49 69H0.900001V71H49V69ZM1.9 70V-3.8147e-06H-0.0999999V70H1.9ZM0.900001 0.999996H12.4V-1H0.900001V0.999996ZM11.4 -3.8147e-06V59.3H13.4V-3.8147e-06H11.4ZM12.4 60.3H41.3V58.3H12.4V60.3ZM42.3 59.3V-3.8147e-06H40.3V59.3H42.3ZM41.3 0.999996H52.7V-1H41.3V0.999996ZM51.7 -3.8147e-06V59.3H53.7V-3.8147e-06H51.7ZM84.4703 59.1H83.4703V60.1H84.4703V59.1ZM114.77 59.1H115.77V58.1H114.77V59.1ZM114.77 70V71H115.77V70H114.77ZM72.9703 70H71.9703V71H72.9703V70ZM72.9703 -3.8147e-06V-1H71.9703V-3.8147e-06H72.9703ZM113.67 -3.8147e-06H114.67V-1H113.67V-3.8147e-06ZM113.67 10.8V11.8H114.67V10.8H113.67ZM84.4703 10.8V9.8H83.4703V10.8H84.4703ZM84.4703 29H83.4703V30H84.4703V29ZM111.07 29H112.07V28H111.07V29ZM111.07 39.6V40.6H112.07V39.6H111.07ZM84.4703 39.6V38.6H83.4703V39.6H84.4703ZM84.4703 60.1H114.77V58.1H84.4703V60.1ZM113.77 59.1V70H115.77V59.1H113.77ZM114.77 69H72.9703V71H114.77V69ZM73.9703 70V-3.8147e-06H71.9703V70H73.9703ZM72.9703 0.999996H113.67V-1H72.9703V0.999996ZM112.67 -3.8147e-06V10.8H114.67V-3.8147e-06H112.67ZM113.67 9.8H84.4703V11.8H113.67V9.8ZM83.4703 10.8V29H85.4703V10.8H83.4703ZM84.4703 30H111.07V28H84.4703V30ZM110.07 29V39.6H112.07V29H110.07ZM111.07 38.6H84.4703V40.6H111.07V38.6ZM83.4703 39.6V59.1H85.4703V39.6H83.4703ZM172.037 -3.8147e-06V-1H171.037V-3.8147e-06H172.037ZM183.537 -3.8147e-06H184.537V-1H183.537V-3.8147e-06ZM183.537 70V71H184.537V70H183.537ZM172.037 70H171.037V71H172.037V70ZM172.037 39.5H173.037V38.5H172.037V39.5ZM140.037 39.5V38.5H139.037V39.5H140.037ZM140.037 70V71H141.037V70H140.037ZM128.537 70H127.537V71H128.537V70ZM128.537 -3.8147e-06V-1H127.537V-3.8147e-06H128.537ZM140.037 -3.8147e-06H141.037V-1H140.037V-3.8147e-06ZM140.037 28.6H139.037V29.6H140.037V28.6ZM172.037 28.6V29.6H173.037V28.6H172.037ZM172.037 0.999996H183.537V-1H172.037V0.999996ZM182.537 -3.8147e-06V70H184.537V-3.8147e-06H182.537ZM183.537 69H172.037V71H183.537V69ZM173.037 70V39.5H171.037V70H173.037ZM172.037 38.5H140.037V40.5H172.037V38.5ZM139.037 39.5V70H141.037V39.5H139.037ZM140.037 69H128.537V71H140.037V69ZM129.537 70V-3.8147e-06H127.537V70H129.537ZM128.537 0.999996H140.037V-1H128.537V0.999996ZM139.037 -3.8147e-06V28.6H141.037V-3.8147e-06H139.037ZM140.037 29.6H172.037V27.6H140.037V29.6ZM173.037 28.6V-3.8147e-06H171.037V28.6H173.037ZM244.991 29.9L245.687 29.1824L244.991 29.9ZM244.991 63.4L244.294 62.6824L244.991 63.4ZM201.291 70H200.291V71H201.291V70ZM201.291 -3.8147e-06V-1H200.291V-3.8147e-06H201.291ZM212.791 -3.8147e-06H213.791V-1H212.791V-3.8147e-06ZM212.791 23.3H211.791V24.3H212.791V23.3ZM260.891 -3.8147e-06V-1H259.891V-3.8147e-06H260.891ZM272.391 -3.8147e-06H273.391V-1H272.391V-3.8147e-06ZM272.391 70V71H273.391V70H272.391ZM260.891 70H259.891V71H260.891V70ZM236.291 55.7L236.978 56.4265L236.978 56.4259L236.291 55.7ZM236.291 37.6L235.593 38.3167L235.603 38.3263L235.613 38.3355L236.291 37.6ZM212.791 34V33H211.791V34H212.791ZM212.791 59.2H211.791V60.2H212.791V59.2ZM227.591 24.3C234.431 24.3 239.97 26.4208 244.294 30.6176L245.687 29.1824C240.944 24.5792 234.884 22.3 227.591 22.3V24.3ZM244.294 30.6176C248.618 34.8139 250.791 40.1475 250.791 46.7H252.791C252.791 39.6525 250.43 33.7861 245.687 29.1824L244.294 30.6176ZM250.791 46.7C250.791 53.1828 248.62 58.4841 244.294 62.6824L245.687 64.1176C250.428 59.5159 252.791 53.6839 252.791 46.7H250.791ZM244.294 62.6824C239.97 66.8792 234.431 69 227.591 69V71C234.884 71 240.944 68.7208 245.687 64.1176L244.294 62.6824ZM227.591 69H201.291V71H227.591V69ZM202.291 70V-3.8147e-06H200.291V70H202.291ZM201.291 0.999996H212.791V-1H201.291V0.999996ZM211.791 -3.8147e-06V23.3H213.791V-3.8147e-06H211.791ZM212.791 24.3H227.591V22.3H212.791V24.3ZM260.891 0.999996H272.391V-1H260.891V0.999996ZM271.391 -3.8147e-06V70H273.391V-3.8147e-06H271.391ZM272.391 69H260.891V71H272.391V69ZM261.891 70V-3.8147e-06H259.891V70H261.891ZM226.791 60.2C230.875 60.2 234.299 58.9601 236.978 56.4265L235.603 54.9735C233.348 57.1066 230.44 58.2 226.791 58.2V60.2ZM236.978 56.4259C239.722 53.8266 241.091 50.5256 241.091 46.6H239.091C239.091 50.0077 237.926 52.7734 235.603 54.974L236.978 56.4259ZM241.091 46.6C241.091 42.6741 239.721 39.4004 236.968 36.8645L235.613 38.3355C237.926 40.4662 239.091 43.1925 239.091 46.6H241.091ZM236.988 36.8833C234.311 34.2786 230.883 33 226.791 33V35C230.432 35 233.337 36.1214 235.593 38.3167L236.988 36.8833ZM226.791 33H212.791V35H226.791V33ZM211.791 34V59.2H213.791V34H211.791ZM212.791 60.2H226.791V58.2H212.791V60.2Z" fill="black" fill-opacity="0.1"/>
</svg>
