<svg width="25" height="32" viewBox="0 0 25 32" fill="none" xmlns="http://www.w3.org/2000/svg">
<path d="M16.5013 17.0667C27.824 16.5973 27.8187 0.469333 16.5013 0H9.03467C8.75177 0 8.48046 0.112381 8.28042 0.312419C8.08038 0.512458 7.968 0.783769 7.968 1.06667V14.9333H1.06667C0.783769 14.9333 0.512458 15.0457 0.312419 15.2458C0.112381 15.4458 0 15.7171 0 16C0 16.2829 0.112381 16.5542 0.312419 16.7542C0.512458 16.9543 0.783769 17.0667 1.06667 17.0667H7.968V20.144H1.06667C0.783769 20.144 0.512458 20.2564 0.312419 20.4564C0.112381 20.6565 0 20.9278 0 21.2107C0 21.4936 0.112381 21.7649 0.312419 21.9649C0.512458 22.165 0.783769 22.2773 1.06667 22.2773H7.968V30.9333C7.968 31.0734 7.99559 31.2121 8.0492 31.3415C8.1028 31.4709 8.18137 31.5885 8.28042 31.6876C8.37947 31.7866 8.49706 31.8652 8.62647 31.9188C8.75589 31.9724 8.89459 32 9.03467 32C9.17474 32 9.31345 31.9724 9.44286 31.9188C9.57228 31.8652 9.68987 31.7866 9.78891 31.6876C9.88796 31.5885 9.96653 31.4709 10.0201 31.3415C10.0737 31.2121 10.1013 31.0734 10.1013 30.9333V22.2773H16.5013C16.7842 22.2773 17.0555 22.165 17.2556 21.9649C17.4556 21.7649 17.568 21.4936 17.568 21.2107C17.568 20.9278 17.4556 20.6565 17.2556 20.4564C17.0555 20.2564 16.7842 20.144 16.5013 20.144H10.1013V17.0667H16.5013ZM10.1013 2.13333H16.5013C18.1987 2.13333 19.8266 2.80762 21.0268 4.00785C22.2271 5.20808 22.9013 6.83595 22.9013 8.53333C22.9013 10.2307 22.2271 11.8586 21.0268 13.0588C19.8266 14.2591 18.1987 14.9333 16.5013 14.9333H10.1013V2.13333Z" fill="white" fill-opacity="0.7"/>
</svg>
