<svg width="100" height="100" viewBox="0 0 100 100" fill="none" xmlns="http://www.w3.org/2000/svg">
<g clip-path="url(#clip0_121_203)">
<path d="M50 100C77.6142 100 100 77.6142 100 50C100 22.3858 77.6142 0 50 0C22.3858 0 0 22.3858 0 50C0 77.6142 22.3858 100 50 100Z" fill="#F2F2F2"/>
<path d="M64.0532 36.9778C64.1793 37.105 64.3293 37.2059 64.4946 37.2748C64.6599 37.3436 64.8372 37.3791 65.0163 37.3791C65.1954 37.3791 65.3727 37.3436 65.538 37.2748C65.7033 37.2059 65.8533 37.105 65.9794 36.9778L66.9968 35.9469C67.5038 36.0092 68.0183 35.9615 68.5052 35.807C68.9921 35.6525 69.4399 35.3949 69.8183 35.0516C71.9344 32.9355 70.2116 27.7809 65.9794 23.5487C61.7472 19.3164 56.5925 17.6344 54.4629 19.7098C54.1259 20.0894 53.8721 20.5354 53.7179 21.019C53.5637 21.5026 53.5125 22.0131 53.5676 22.5177L52.5502 23.5487C52.2976 23.8028 52.1558 24.1466 52.1558 24.505C52.1558 24.8633 52.2976 25.2071 52.5502 25.4613L64.0532 36.9778Z" fill="#D33F55" fill-opacity="0.8"/>
<path d="M44.8725 59.9972C45.2157 59.6189 45.4734 59.171 45.6278 58.6841C45.7823 58.1972 45.8301 57.6827 45.7678 57.1757L46.7987 56.1584C47.0513 55.9042 47.1931 55.5604 47.1931 55.202C47.1931 54.8437 47.0513 54.4999 46.7987 54.2457L41.0743 48.5214L35.2686 42.7292C35.0144 42.4765 34.6706 42.3347 34.3122 42.3347C33.9539 42.3347 33.6101 42.4765 33.3559 42.7292L32.325 43.7465C31.8204 43.6915 31.3099 43.7427 30.8262 43.8969C30.3426 44.0511 29.8967 44.3048 29.5171 44.6418C27.401 46.7715 29.1101 51.9261 33.3559 56.1584C37.6017 60.3906 42.7564 62.1133 44.8725 59.9972Z" fill="#D33F55" fill-opacity="0.8"/>
<path d="M80.7515 61.9371L62.1406 46.5681L57.3522 51.3565L72.7211 69.9675C73.0823 70.4036 73.5304 70.7595 74.0369 71.0126C74.5435 71.2656 75.0973 71.4102 75.6628 71.437C76.2284 71.4638 76.7934 71.3723 77.3216 71.1683C77.8498 70.9643 78.3296 70.6523 78.7304 70.2523L81.0364 67.9599C81.4386 67.5589 81.7525 67.0783 81.9578 66.5488C82.1631 66.0193 82.2553 65.4526 82.2285 64.8854C82.2016 64.3181 82.0564 63.7627 81.802 63.2549C81.5476 62.7471 81.1898 62.2982 80.7515 61.9371Z" fill="#D33F55" fill-opacity="0.8"/>
<path d="M51.682 73.0602C51.682 71.9809 51.2533 70.9458 50.4901 70.1826C49.7269 69.4195 48.6919 68.9907 47.6126 68.9907H27.2653C26.186 68.9907 25.1509 69.4195 24.3878 70.1826C23.6246 70.9458 23.1959 71.9809 23.1959 73.0602V74.4167H51.682V73.0602Z" fill="#D33F55" fill-opacity="0.8"/>
<path d="M57.108 77.1296H17.7699V81.1991H57.108V77.1296Z" fill="#D33F55" fill-opacity="0.8"/>
<path d="M47.7618 51.3564C48.5248 52.1185 49.5591 52.5465 50.6375 52.5465C51.7159 52.5465 52.7503 52.1185 53.5133 51.3564L61.1774 43.6923C61.9395 42.9292 62.3675 41.8949 62.3675 40.8165C62.3675 39.7381 61.9395 38.7038 61.1774 37.9408L51.5464 28.3369C50.7834 27.5748 49.749 27.1467 48.6706 27.1467C47.5922 27.1467 46.5579 27.5748 45.7949 28.3369L38.1172 36.0146C37.3551 36.7776 36.9271 37.8119 36.9271 38.8903C36.9271 39.9687 37.3551 41.003 38.1172 41.766L47.7618 51.3564ZM40.0841 37.9815L47.7618 30.3173C48.0159 30.0647 48.3597 29.9229 48.7181 29.9229C49.0765 29.9229 49.4203 30.0647 49.6744 30.3173L52.2518 32.8946C48.2379 35.1539 44.9207 38.4711 42.6614 42.485L40.0841 39.9077C39.9569 39.7816 39.856 39.6315 39.7872 39.4662C39.7183 39.3009 39.6828 39.1236 39.6828 38.9446C39.6828 38.7655 39.7183 38.5882 39.7872 38.4229C39.856 38.2576 39.9569 38.1076 40.0841 37.9815Z" fill="#D33F55" fill-opacity="0.8"/>
</g>
<defs>
<clipPath id="clip0_121_203">
<rect width="100" height="100" fill="white"/>
</clipPath>
</defs>
</svg>
