<svg width="38" height="40" viewBox="0 0 38 40" fill="none" xmlns="http://www.w3.org/2000/svg">
<path d="M34.359 2.73504H29.8325V0.854701C29.8325 0.62802 29.7424 0.410624 29.5821 0.250336C29.4219 0.0900486 29.2045 0 28.9778 0C28.7511 0 28.5337 0.0900486 28.3734 0.250336C28.2131 0.410624 28.1231 0.62802 28.1231 0.854701V2.73504H19.4872V0.854701C19.4872 0.62802 19.3971 0.410624 19.2368 0.250336C19.0766 0.0900486 18.8592 0 18.6325 0C18.4058 0 18.1884 0.0900486 18.0281 0.250336C17.8678 0.410624 17.7778 0.62802 17.7778 0.854701V2.73504H9.14188V0.854701C9.14188 0.62802 9.05183 0.410624 8.89154 0.250336C8.73126 0.0900486 8.51386 0 8.28718 0C8.0605 0 7.8431 0.0900486 7.68282 0.250336C7.52253 0.410624 7.43248 0.62802 7.43248 0.854701V2.73504H2.90598C2.13638 2.73864 1.39932 3.04596 0.855116 3.59016C0.310916 4.13436 0.00359635 4.87142 0 5.64103L0 37.094C0.00359635 37.8636 0.310916 38.6007 0.855116 39.1449C1.39932 39.6891 2.13638 39.9964 2.90598 40H30.0855C31.9868 39.991 33.8077 39.2317 35.1522 37.8872C36.4967 36.5428 37.256 34.7219 37.265 32.8205V5.64103C37.2614 4.87142 36.954 4.13436 36.4098 3.59016C35.8656 3.04596 35.1286 2.73864 34.359 2.73504ZM2.90598 4.44444H7.43248V6.32479C7.43248 6.55147 7.52253 6.76886 7.68282 6.92915C7.8431 7.08944 8.0605 7.17949 8.28718 7.17949C8.51386 7.17949 8.73126 7.08944 8.89154 6.92915C9.05183 6.76886 9.14188 6.55147 9.14188 6.32479V4.44444H17.7778V6.32479C17.7778 6.55147 17.8678 6.76886 18.0281 6.92915C18.1884 7.08944 18.4058 7.17949 18.6325 7.17949C18.8592 7.17949 19.0766 7.08944 19.2368 6.92915C19.3971 6.76886 19.4872 6.55147 19.4872 6.32479V4.44444H28.1231V6.32479C28.1231 6.55147 28.2131 6.76886 28.3734 6.92915C28.5337 7.08944 28.7511 7.17949 28.9778 7.17949C29.2045 7.17949 29.4219 7.08944 29.5821 6.92915C29.7424 6.76886 29.8325 6.55147 29.8325 6.32479V4.44444H34.359C34.6752 4.448 34.9775 4.57521 35.2012 4.79884C35.4248 5.02248 35.552 5.32478 35.5556 5.64103V9.40171H1.7094V5.64103C1.71296 5.32478 1.84016 5.02248 2.0638 4.79884C2.28744 4.57521 2.58973 4.448 2.90598 4.44444ZM1.7094 37.094V11.1111H35.5556V31.5214H29.641C29.4167 31.5213 29.2013 31.6095 29.0414 31.7669C28.8815 31.9242 28.7899 32.1381 28.7863 32.3624V38.2906H2.90598C2.58973 38.287 2.28744 38.1598 2.0638 37.9362C1.84016 37.7126 1.71296 37.4103 1.7094 37.094ZM30.4957 38.2906V33.2308H35.5556C35.4536 34.5388 34.8878 35.7674 33.96 36.6951C33.0323 37.6228 31.8037 38.1886 30.4957 38.2906Z" fill="white" fill-opacity="0.7"/>
<path d="M29.2034 19.576C29.4243 19.3197 29.5926 19.0223 29.6985 18.7009C29.8045 18.3796 29.8461 18.0405 29.8211 17.703C29.796 17.3655 29.7047 17.0363 29.5524 16.7341C29.4001 16.432 29.1897 16.1627 28.9334 15.9418C28.677 15.721 28.3796 15.5527 28.0583 15.4468C27.7369 15.3408 27.3978 15.2991 27.0603 15.3242C26.7229 15.3493 26.3936 15.4406 26.0915 15.5929C25.7893 15.7452 25.5201 15.9556 25.2992 16.2119L16.9778 25.8666C16.8988 25.9584 16.8015 26.0327 16.6921 26.0846C16.5827 26.1366 16.4637 26.1651 16.3426 26.1683C16.2216 26.1715 16.1012 26.1494 15.9892 26.1033C15.8772 26.0573 15.7761 25.9883 15.6923 25.9008L11.8769 21.8803C11.3976 21.4152 10.7569 21.1537 10.0891 21.1506C9.42121 21.1475 8.77807 21.403 8.29447 21.8637C7.81087 22.3243 7.52434 22.9542 7.49494 23.6214C7.46554 24.2886 7.69556 24.9413 8.13678 25.4427L14.5778 32.1914C14.8211 32.439 15.1118 32.6349 15.4325 32.7677C15.7532 32.9004 16.0974 32.9672 16.4445 32.9641H16.506C16.8618 32.9647 17.2138 32.8915 17.5398 32.7491C17.8658 32.6067 18.1587 32.3982 18.4 32.1367L29.2034 19.576ZM16.4718 31.2957C16.35 31.3017 16.2283 31.2803 16.1159 31.2329C16.0034 31.1856 15.9031 31.1136 15.8222 31.0222L9.38122 24.2735C9.30039 24.1934 9.23623 24.098 9.19244 23.993C9.14865 23.888 9.12611 23.7753 9.12611 23.6615C9.12611 23.5477 9.14865 23.435 9.19244 23.33C9.23623 23.225 9.30039 23.1296 9.38122 23.0495C9.45969 22.9724 9.55265 22.9115 9.65475 22.8704C9.75684 22.8294 9.86606 22.8089 9.97609 22.8102C10.2058 22.8171 10.4239 22.9127 10.5846 23.0769L14.4 27.0769C14.6506 27.3337 14.9507 27.537 15.2821 27.6745C15.6136 27.812 15.9694 27.8809 16.3282 27.8769C16.6879 27.8675 17.0416 27.783 17.3666 27.6288C17.6916 27.4745 17.9808 27.2539 18.2154 26.9812L26.5983 17.3265C26.7516 17.1624 26.9624 17.0641 27.1866 17.0522C27.4108 17.0402 27.6309 17.1156 27.8008 17.2624C27.9706 17.4093 28.077 17.6162 28.0975 17.8397C28.1181 18.0633 28.0513 18.2861 27.9111 18.4615L17.094 30.9948C17.0159 31.0843 16.9205 31.1571 16.8136 31.2087C16.7067 31.2604 16.5904 31.29 16.4718 31.2957Z" fill="white" fill-opacity="0.7"/>
</svg>
