<svg width="29" height="32" viewBox="0 0 29 32" fill="none" xmlns="http://www.w3.org/2000/svg">
<g clip-path="url(#clip0_312_671)">
<path fill-rule="evenodd" clip-rule="evenodd" d="M25.5939 0.221679C25.5939 0.221679 24.088 -0.516303 24.1101 0.701474C24.1322 1.91925 26.8789 1.34694 27.5372 4.6926C27.5372 4.6926 28.5636 1.84395 25.5939 0.221679Z" fill="#D507D3"/>
<path fill-rule="evenodd" clip-rule="evenodd" d="M10.1817 10.8439C10.5123 10.8197 10.8402 10.9192 11.1044 11.1238C11.3686 11.3284 11.5512 11.6242 11.6182 11.9563C11.6957 12.3227 11.6288 12.7057 11.4319 13.0219C11.2349 13.3382 10.924 13.5622 10.5666 13.6452C10.3743 13.6873 10.1754 13.686 9.98361 13.6415C9.79185 13.597 9.61187 13.5103 9.45616 13.3875C9.30045 13.2646 9.17276 13.1086 9.08195 12.9302C8.99114 12.7517 8.9394 12.5552 8.93031 12.3543C8.90537 11.9854 9.0222 11.621 9.25594 11.3389C9.48968 11.0568 9.82185 10.8792 10.1817 10.8439Z" fill="#7C06EC"/>
<path fill-rule="evenodd" clip-rule="evenodd" d="M1.30839 7.5789C1.57021 8.2137 1.9727 8.77754 2.48407 9.22591C3.46935 10.0657 4.71183 10.5246 5.99429 10.5222C6.95236 10.5371 7.8967 10.2881 8.72844 9.80145C9.54027 9.32094 10.1172 8.57507 10.4594 7.56384C10.7244 6.76777 10.8144 5.782 10.7296 4.60653H6.02374V6.8506H8.14585C7.91801 7.31677 7.63758 7.6395 7.30458 7.8188C6.97157 7.99809 6.53481 8.0881 5.99429 8.08882C5.23434 8.08882 4.62897 7.8378 4.17819 7.33578C3.72741 6.83375 3.50166 6.15242 3.50096 5.2918C3.50096 4.48569 3.7218 3.81046 4.16347 3.26612C4.60514 2.72178 5.21541 2.44961 5.99429 2.44961C6.41768 2.43386 6.83846 2.52357 7.22045 2.71102C7.56715 2.91098 7.84929 3.21007 8.03228 3.57164H10.5677C10.4222 2.86321 10.1064 2.20304 9.64883 1.65083C9.19128 1.09861 8.60641 0.67176 7.9471 0.408861C7.32213 0.172688 6.66052 0.0542347 5.99429 0.0592339C5.14646 0.0536253 4.30853 0.245669 3.54408 0.620788C2.78483 0.995875 2.14896 1.59078 1.63649 2.4055C1.12401 3.22022 0.867422 4.18842 0.866721 5.31009C0.856651 6.08969 1.00714 6.86273 1.30839 7.5789ZM18.83 10.3759V9.02151C18.6887 9.03368 18.5476 8.99569 18.4304 8.91394C18.3523 8.85339 18.299 8.76515 18.2811 8.66651C18.2641 8.51404 18.2571 8.36058 18.2601 8.20715V5.94803C18.2601 4.96692 17.9467 4.26014 17.32 3.82767C16.6932 3.39521 15.867 3.18006 14.8414 3.18221C13.8444 3.18221 12.9755 3.35218 12.2344 3.69213L12.5194 5.45532C13.0032 5.20359 13.6341 5.07737 14.4123 5.07665C15.3994 5.07665 15.8933 5.3438 15.894 5.8781V6.09326C15.4965 5.8322 14.984 5.70167 14.3566 5.70167C13.5307 5.70167 12.8707 5.92257 12.3764 6.36435C11.8822 6.80614 11.6543 7.45447 11.6929 8.30935C11.694 8.61798 11.7631 8.92237 11.8951 9.19989C12.0271 9.47741 12.2186 9.7209 12.4553 9.91226C12.9431 10.3198 13.5565 10.5367 14.1862 10.5244C14.6387 10.527 15.087 10.4355 15.5039 10.2554C15.8917 10.0985 16.2087 9.79988 16.3935 9.4174C16.5078 10.4215 17.32 10.742 18.83 10.3791V10.3759ZM15.5039 8.39111C15.2617 8.54392 14.9828 8.62475 14.6983 8.62455C14.3092 8.62455 14.0958 8.4596 14.0579 8.1297C14.0102 7.8794 14.0565 7.67967 14.1967 7.53049C14.3613 7.37346 14.5774 7.28518 14.8024 7.28306C15.1893 7.25766 15.5726 7.37187 15.8856 7.60579V7.75103C15.8858 7.88335 15.8503 8.01317 15.7829 8.12613C15.7156 8.2391 15.619 8.3308 15.5039 8.39111ZM22.946 10.5954C23.7915 10.5954 24.523 10.3888 25.1407 9.97573C25.4326 9.79376 25.6737 9.53789 25.8408 9.23281C26.0078 8.92773 26.0952 8.58374 26.0945 8.23405C26.1113 7.91369 26.0528 7.59388 25.9241 7.30135C25.8201 7.06609 25.6668 6.85711 25.4751 6.68924C25.2539 6.52054 25.0044 6.39474 24.739 6.31809C24.471 6.22721 24.1973 6.15532 23.9198 6.10294C23.6916 6.06421 23.3824 6.02441 22.9933 5.98568C22.9552 5.98366 22.9172 5.97899 22.8797 5.97169L22.7514 5.9491C22.723 5.9491 22.682 5.93942 22.6305 5.93512C22.5888 5.93312 22.5478 5.92328 22.5096 5.90607C22.4756 5.8888 22.4405 5.87406 22.4044 5.86196C22.3687 5.85232 22.3365 5.83211 22.3119 5.80387L22.2477 5.72319C22.2238 5.69468 22.2087 5.65944 22.2046 5.62207C22.1994 5.57853 22.1973 5.53467 22.1983 5.49082C22.2007 5.42239 22.2217 5.35599 22.2588 5.29901C22.2959 5.24203 22.3478 5.19671 22.4086 5.16809C22.5682 5.07926 22.7465 5.03163 22.9281 5.02931C23.1232 5.02013 23.3169 5.06669 23.4876 5.16379C23.5635 5.19974 23.6294 5.25464 23.6792 5.32344C23.729 5.39223 23.7611 5.47272 23.7725 5.55752H25.8947C25.9325 4.82958 25.6479 4.24902 25.0408 3.81584C24.4336 3.38266 23.707 3.16751 22.8608 3.17038C22.0251 3.17038 21.3058 3.37692 20.7029 3.79002C20.1 4.20312 19.7986 4.79336 19.7986 5.56075C19.7929 5.86367 19.8654 6.16277 20.0089 6.42782C20.128 6.6531 20.2904 6.85142 20.4863 7.01089C20.7131 7.17538 20.9661 7.2984 21.234 7.3745C21.4997 7.46436 21.7709 7.53624 22.0458 7.58966C22.2688 7.62839 22.5513 7.66711 22.8934 7.70584C23.0205 7.71959 23.1466 7.7415 23.2709 7.77146C23.3677 7.79948 23.4559 7.85203 23.5275 7.92423C23.5689 7.96615 23.6011 8.01661 23.622 8.07226C23.6428 8.12791 23.6519 8.18746 23.6485 8.24696C23.6498 8.33056 23.6287 8.41294 23.5873 8.48505C23.546 8.55717 23.486 8.61623 23.4139 8.65575C23.2431 8.75627 23.0484 8.80653 22.8513 8.80098C22.6533 8.80686 22.4579 8.75379 22.2887 8.64822C22.2117 8.59804 22.1493 8.52767 22.1078 8.44443C22.0664 8.36119 22.0475 8.26811 22.0532 8.17488H19.6839C19.7218 9.79715 20.8084 10.6083 22.9439 10.6083L22.946 10.5954ZM4.28545 21.9534V16.6746H6.28348V14.9286H4.28545V14.2444C4.28545 13.2239 4.98336 12.9273 6.37918 13.3547L6.60737 11.5195C6.03965 11.3632 5.45657 11.2726 4.86909 11.2494C4.36454 11.2303 3.86068 11.3031 3.38108 11.4646C2.91766 11.6269 2.52951 11.9592 2.29163 12.3973C2.02593 12.8613 1.89308 13.4573 1.89308 14.1852L1.87941 14.9286H0.681641V16.6746H1.84996V21.9459L4.28545 21.9534ZM10.5393 14.7102C9.59671 14.6932 8.68285 15.0422 7.9818 15.687C7.26532 16.3382 6.90708 17.2465 6.90708 18.412C6.89002 19.1324 7.07779 19.8425 7.44759 20.4559C7.77392 21.0042 8.24584 21.4463 8.80836 21.7307C9.36233 21.9988 9.96975 22.131 10.5824 22.1169C11.5243 22.1241 12.4353 21.7734 13.1388 21.1326C13.856 20.4871 14.2146 19.5813 14.2146 18.4152C14.2146 17.249 13.8511 16.3397 13.1241 15.687C12.4127 15.0415 11.4901 14.6928 10.5393 14.7102ZM10.5824 16.8811C10.7462 16.8857 10.9073 16.925 11.0555 16.9965C11.2038 17.0679 11.3359 17.1701 11.4437 17.2964C11.6855 17.5642 11.8075 17.9354 11.8065 18.412C11.8054 18.8885 11.6855 19.2597 11.4437 19.5265C11.3359 19.6528 11.2038 19.7549 11.0555 19.8264C10.9073 19.8978 10.7462 19.9371 10.5824 19.9417C10.4158 19.9477 10.2499 19.9154 10.0971 19.8473C9.94423 19.7792 9.80823 19.6769 9.69906 19.548C9.45158 19.2762 9.32784 18.8975 9.32784 18.412C9.32784 17.9264 9.45158 17.5474 9.69906 17.2749C9.80823 17.1459 9.94423 17.0437 10.0971 16.9755C10.2499 16.9074 10.4158 16.8751 10.5824 16.8811ZM17.6975 15.1104C17.4677 14.9258 17.1904 14.8137 16.8993 14.7877C16.5969 14.749 16.2915 14.7414 15.9876 14.7651C15.7031 14.7875 15.4208 14.8324 15.1432 14.8996V16.255C15.2909 16.2454 15.4379 16.283 15.5638 16.3626C15.6459 16.4187 15.7045 16.5043 15.7278 16.6025C15.751 16.7544 15.7605 16.9082 15.7562 17.0619V21.9588H18.1349V18.4259C18.1349 17.9239 18.2773 17.5295 18.5619 17.2426C18.8542 16.9575 19.2412 16.7961 19.645 16.7908C20.0649 16.7694 20.4796 16.8937 20.8218 17.1436L21.3066 15.133C20.9044 14.8279 20.4097 14.6781 19.91 14.7102C19.5109 14.705 19.1175 14.8082 18.7701 15.0093C18.4395 15.1954 18.1864 15.4982 18.0582 15.8613C18.0518 15.717 18.0162 15.5755 17.9538 15.4459C17.8914 15.3163 17.8034 15.2014 17.6954 15.1083L17.6975 15.1104ZM23.1027 12.7577L22.8324 14.9286H21.621V16.5175L22.8324 16.6746V19.1811C22.8324 19.8897 22.9677 20.4749 23.2383 20.9368C23.484 21.3771 23.8757 21.713 24.3425 21.8835C24.8327 22.0591 25.3502 22.1418 25.8694 22.1277C26.4624 22.1113 27.0511 22.0184 27.6214 21.8512L27.4226 19.9998C27.112 20.1204 26.7856 20.1929 26.4541 20.215C26.1517 20.2377 25.8506 20.1558 25.5992 19.9826C25.3426 19.8076 25.2143 19.5207 25.2143 19.122V16.6746H27.308V14.9286H25.2111V12.7577H23.1027Z" fill="white"/>
<path fill-rule="evenodd" clip-rule="evenodd" d="M25.5013 29.3224C14.0663 26.9331 15.7299 24.4922 8.87454 27.5646C1.34197 30.9393 0.750977 25.2861 0.750977 25.2861C0.750977 25.2861 3.42202 28.592 8.10477 26.3124C10.0313 25.3754 12.5078 22.8248 15.6142 22.8215C20.196 22.8215 20.1213 28.2897 25.0344 26.7384C27.1965 26.0553 29.5783 25.4755 28.5562 28.1918" fill="#FAE925"/>
<path fill-rule="evenodd" clip-rule="evenodd" d="M19.6491 26.875L15.2008 26.5609L11.4708 27.2978C11.4708 27.2978 4.45668 31.0296 1.12943 25.8917C1.00114 25.6927 0.626773 25.6766 0.517407 25.5464C0.201929 25.1699 0.0557575 24.5944 0.0294676 24.7751C-0.157716 26.0337 0.542645 28.4983 2.46811 29.9442C2.46811 29.9442 5.68915 32.4819 9.77143 29.9743C13.3122 27.7991 14.8948 28.2896 16.4385 28.7458C19.608 29.6817 21.564 33.3426 25.8903 31.4793" fill="#F613D8"/>
<path fill-rule="evenodd" clip-rule="evenodd" d="M28.6708 28.2466C28.4121 29.9119 27.1986 31.7816 23.9386 31.8322C20.9395 31.8784 19.5072 27.1396 16.262 26.904C13.5068 26.704 12.2912 27.088 8.30248 28.7329C3.64182 30.6596 1.34198 27.4161 1.34198 27.4161C0.747833 26.7825 0.197849 25.3721 0.197849 25.3721C0.197849 25.3721 -0.235408 24.1888 0.375568 24.8138C2.52397 27.0127 5.0478 29.2847 10.9714 26.563C21.5368 21.7134 18.4377 30.0926 25.8715 27.7077C27.8169 27.0837 28.8958 26.8029 28.6708 28.2466Z" fill="url(#paint0_linear_312_671)"/>
<path fill-rule="evenodd" clip-rule="evenodd" d="M25.0049 23.4132C25.4813 23.3917 25.8777 23.7843 25.9366 24.2835C25.9955 24.7827 25.7084 25.2668 25.2562 25.3959C24.7483 25.5411 24.2215 25.1872 24.1373 24.5804C24.0532 23.9737 24.4686 23.4379 25.0049 23.4132Z" fill="#FADD2E"/>
<path fill-rule="evenodd" clip-rule="evenodd" d="M11.8126 30.2812C11.8126 30.2812 10.6379 31.5269 11.9177 31.8949C13.3069 32.2929 14.0672 29.625 18.1516 31.7873C18.1526 31.783 14.6024 27.7779 11.8126 30.2812Z" fill="#8006EC"/>
</g>
<defs>
<linearGradient id="paint0_linear_312_671" x1="0.0253875" y1="29.5365" x2="28.691" y2="26.591" gradientUnits="userSpaceOnUse">
<stop stop-color="#5209EA"/>
<stop offset="1" stop-color="#F000EE"/>
</linearGradient>
<clipPath id="clip0_312_671">
<rect width="28.8" height="32" fill="white"/>
</clipPath>
</defs>
</svg>
