<svg width="100" height="100" viewBox="0 0 100 100" fill="none" xmlns="http://www.w3.org/2000/svg">
<g clip-path="url(#clip0_121_195)">
<path d="M50 100C77.6142 100 100 77.6142 100 50C100 22.3858 77.6142 0 50 0C22.3858 0 0 22.3858 0 50C0 77.6142 22.3858 100 50 100Z" fill="#F2F2F2"/>
<path opacity="0.8" d="M83.6272 50.1899C81.4863 49.2268 79.284 48.4066 77.0347 47.7346L76.5735 47.4769C76.0772 47.3387 75.6152 47.0985 75.217 46.7715C75.164 46.0808 75.164 45.3869 75.217 44.6961C75.425 44.2259 75.6014 43.7737 75.7461 43.3396C76.2204 42.3836 76.6019 41.3843 76.8855 40.3554C78.3098 38.6598 78.6896 37.3847 77.9843 36.6793C77.8623 36.5628 77.7045 36.4911 77.5366 36.4758C77.5366 36.3131 77.5366 36.1367 77.5366 35.9468L77.7265 35.3906C78.0353 34.3147 78.091 33.1819 77.8893 32.0808C77.4959 29.0966 76.3565 27.835 75.0407 27.2789C73.7249 26.7227 73.6842 27.1704 73.6842 27.1704C73.3585 26.9847 73.0183 26.826 72.6668 26.6956C71.7362 26.2535 70.7121 26.044 69.6826 26.0852C69.3287 26.0816 68.975 26.1042 68.6245 26.153H68.2718C67.0279 26.3148 65.8755 26.8934 65.0027 27.7943C63.9588 28.7218 63.1903 29.9185 62.7812 31.2535C62.372 32.5886 62.3381 34.0105 62.6831 35.3635C62.7569 35.655 62.8522 35.9406 62.968 36.2181C62.9607 36.2812 62.9607 36.3449 62.968 36.408C62.8001 36.4233 62.6423 36.495 62.5203 36.6115C62.3917 36.7499 62.2986 36.9175 62.249 37.0998C62.1552 37.414 62.1552 37.7487 62.249 38.0629C62.5453 38.8889 63.0069 39.6459 63.6055 40.2876C63.8891 41.3164 64.2707 42.3158 64.745 43.2718C64.8897 43.7149 65.066 44.1671 65.274 44.6283C65.3063 45.3253 65.2836 46.0238 65.2062 46.7173C64.8785 47.0521 64.4659 47.2913 64.0125 47.4091L63.5106 47.5854C60.4042 48.5892 58.3152 49.3353 57.2708 49.8101V49.8915C57.2708 50.0814 57.2708 50.6511 57.2708 51.1123L58.4373 51.5192C66.4677 54.2593 68.5974 55.2767 69.5605 55.7922C71.6153 56.8702 73.3543 58.4643 74.6066 60.4178C78.6771 60.218 82.7172 59.609 86.6658 58.6001H86.8692V55.0868C86.8459 54.0478 86.5291 53.0367 85.9554 52.1701C85.3817 51.3036 84.5746 50.6171 83.6272 50.1899Z" fill="#D33F55"/>
<path opacity="0.8" d="M35.974 42.3901C36.4399 44.0441 37.0574 45.6515 37.8188 47.192C37.9137 47.4769 38.0494 47.7618 38.1443 48.0466C38.2393 48.3315 38.4699 48.969 38.6734 49.4031C38.8768 49.8372 38.6734 50.4205 38.6734 50.8817C40.0298 52.6451 43.0548 53.8795 46.6224 53.8795C50.1899 53.8795 53.242 52.6587 54.5714 50.8952C54.5714 50.4476 54.5714 49.9321 54.5714 49.4031C54.5714 48.8741 54.9376 48.4671 55.1004 48.0466C55.2632 47.6261 55.331 47.4769 55.4259 47.2056C56.1938 45.6632 56.8115 44.0507 57.2708 42.3901C59.5632 39.6771 60.1872 37.5746 59.0342 36.4351C58.8491 36.2426 58.5958 36.1305 58.3288 36.1231V35.2685C58.5052 34.7531 58.6272 34.3461 58.6272 34.3461C59.1319 32.6146 59.2248 30.789 58.8985 29.0152C58.2474 24.1725 56.4162 22.1378 54.3001 21.2425C52.4417 20.4557 52.1161 21.0662 52.1161 21.0662C51.6059 20.7963 51.0806 20.5562 50.5426 20.3472C49.0422 19.6305 47.3882 19.295 45.7271 19.3706C45.1561 19.3577 44.585 19.3849 44.0179 19.4519H43.4346C41.4231 19.698 39.5587 20.6326 38.1579 22.0971C37.7897 22.4198 37.441 22.7641 37.1134 23.128C35.7105 24.5859 34.7201 26.3903 34.2434 28.3566C33.7667 30.3229 33.8209 32.3805 34.4004 34.319C34.5198 34.7821 34.674 35.2356 34.8616 35.6755C34.8616 35.6755 34.8616 35.6755 34.8616 35.7569C34.8616 35.8383 34.8616 35.9604 34.8616 36.0689C34.5953 36.0791 34.343 36.1907 34.1563 36.3809C33.0711 37.5746 33.6815 39.6364 35.974 42.3901Z" fill="#D33F55"/>
<path opacity="0.8" d="M68.2447 58.1661C64.7743 56.6462 61.2136 55.3415 57.5827 54.2595L56.9723 53.9746L50.2577 70.7679L49.3082 66.0473C49.2547 65.7659 49.105 65.5119 48.8847 65.3287C48.6645 65.1456 48.3874 65.0448 48.1009 65.0435H45.1845C44.8964 65.0442 44.6174 65.1446 44.3949 65.3275C44.1724 65.5105 44.02 65.7648 43.9636 66.0473L43.0277 70.7679L36.3809 54.0424L35.8247 54.2323C32.1269 55.3097 28.5021 56.6237 24.9729 58.1661C21.4596 60.1059 19.6826 62.7918 19.6826 66.1694V71.7581L20.0081 71.8531C27.2496 73.6953 34.6759 74.7146 42.146 74.8916H51.0309C58.5271 74.7385 65.9814 73.7327 73.2501 71.8938L73.5893 71.7988V66.1694C73.5486 62.7918 71.758 60.1059 68.2447 58.1661ZM58.9935 71.8938L63.0629 67.4852L66.4677 70.7001C63.9986 71.227 61.5039 71.6255 58.9935 71.8938Z" fill="#D33F55"/>
<path d="M44.5198 57.637C44.3316 57.6364 44.1457 57.6789 43.9765 57.7612C43.8072 57.8435 43.659 57.9634 43.5431 58.1117C43.4341 58.2628 43.3573 58.4347 43.3177 58.6168C43.278 58.7988 43.2762 58.987 43.3125 59.1698L43.9365 61.6386C44.0008 61.9064 44.1537 62.1446 44.3704 62.3145C44.5871 62.4844 44.8549 62.5761 45.1302 62.5746H48.1416C48.4187 62.5767 48.6884 62.4855 48.9074 62.3158C49.1264 62.146 49.2819 61.9075 49.3489 61.6386L49.9593 59.1698C50.0061 58.9934 50.0128 58.8089 49.9789 58.6296C49.9449 58.4503 49.8713 58.2809 49.7633 58.1339C49.6552 57.9868 49.5157 57.8659 49.3547 57.7799C49.1938 57.6939 49.0157 57.6451 48.8334 57.637H44.5198Z" fill="#D33F55"/>
</g>
<defs>
<clipPath id="clip0_121_195">
<rect width="100" height="100" fill="white"/>
</clipPath>
</defs>
</svg>
