<svg width="20" height="20" viewBox="0 0 20 20" fill="none" xmlns="http://www.w3.org/2000/svg">
<path fill-rule="evenodd" clip-rule="evenodd" d="M10 0C4.47715 0 0 4.47715 0 10C0 15.5228 4.47715 20 10 20C15.5228 20 20 15.5228 20 10C20 4.47715 15.5228 0 10 0ZM10.8142 13.1568C10.7156 13.2607 10.5231 13.2817 10.5231 13.2817H9.88559C9.88559 13.2817 8.47907 13.3647 7.24001 12.0988C5.88879 10.7176 4.69565 7.97735 4.69565 7.97735C4.69565 7.97735 4.62678 7.7976 4.70139 7.71105C4.78538 7.61324 5.01441 7.6071 5.01441 7.6071L6.53832 7.59737C6.53832 7.59737 6.68179 7.62041 6.78456 7.69467C6.8696 7.75612 6.91708 7.87032 6.91708 7.87032C6.91708 7.87032 7.16332 8.48177 7.48939 9.03485C8.12639 10.1149 8.42272 10.351 8.63871 10.2352C8.95382 10.0667 8.85939 8.70864 8.85939 8.70864C8.85939 8.70864 8.86513 8.21599 8.70079 7.9963C8.57349 7.82628 8.33351 7.7766 8.2276 7.76278C8.14152 7.75151 8.28238 7.55588 8.46498 7.46832C8.7394 7.3367 9.22354 7.32902 9.79586 7.33466C10.2419 7.33926 10.3703 7.36641 10.5445 7.40789C10.9489 7.50368 10.9363 7.81068 10.909 8.47324C10.9009 8.6714 10.8914 8.90135 10.8914 9.16697C10.8914 9.22666 10.8897 9.29028 10.8878 9.35574C10.8784 9.69518 10.8676 10.0839 11.0954 10.2286C11.2123 10.3023 11.4977 10.2393 12.2119 9.04919C12.5505 8.48485 12.804 7.82167 12.804 7.82167C12.804 7.82167 12.8598 7.70337 12.9459 7.65267C13.0341 7.60095 13.153 7.61683 13.153 7.61683L14.7568 7.6071C14.7568 7.6071 15.2388 7.55025 15.3166 7.76431C15.3985 7.9881 15.1366 8.51147 14.4813 9.36874C13.8597 10.1822 13.5572 10.4816 13.585 10.7465C13.6053 10.94 13.8019 11.1151 14.1792 11.4586C14.9669 12.1765 15.178 12.5542 15.2288 12.6449C15.233 12.6524 15.2361 12.658 15.2383 12.6616C15.5915 13.2367 14.8465 13.2817 14.8465 13.2817L13.4217 13.3012C13.4217 13.3012 13.116 13.3606 12.7132 13.0892C12.5023 12.9471 12.2961 12.7151 12.0997 12.4941C11.7999 12.1566 11.5228 11.8449 11.2864 11.9185C10.8894 12.0424 10.9014 12.8818 10.9014 12.8818C10.9014 12.8818 10.9045 13.0615 10.8142 13.1568Z" fill="white"/>
</svg>
