<svg width="622" height="74" viewBox="0 0 622 74" fill="none" xmlns="http://www.w3.org/2000/svg">
<path d="M0.900001 2V0.999996H-0.0999999V2H0.900001ZM53.4 2H54.4V0.999996H53.4V2ZM53.4 72V73H54.4V72H53.4ZM41.8 72H40.8V73H41.8V72ZM41.8 12.7H42.8V11.7H41.8V12.7ZM12.4 12.7V11.7H11.4V12.7H12.4ZM12.4 72V73H13.4V72H12.4ZM0.900001 72H-0.0999999V73H0.900001V72ZM0.900001 3H53.4V0.999996H0.900001V3ZM52.4 2V72H54.4V2H52.4ZM53.4 71H41.8V73H53.4V71ZM42.8 72V12.7H40.8V72H42.8ZM41.8 11.7H12.4V13.7H41.8V11.7ZM11.4 12.7V72H13.4V12.7H11.4ZM12.4 71H0.900001V73H12.4V71ZM1.9 72V2H-0.0999999V72H1.9ZM77.2125 63L76.5088 63.7105L76.5122 63.7139L77.2125 63ZM77.2125 11.1L77.9128 11.8139L77.9162 11.8105L77.2125 11.1ZM130.013 11.1L129.309 11.8105L129.312 11.8139L130.013 11.1ZM135.713 55.6L134.844 55.1039L134.842 55.1073L135.713 55.6ZM122.513 68.6L122.029 67.7249L122.024 67.7273L122.513 68.6ZM85.6125 55.1L84.9005 55.8022L84.9054 55.8071L85.6125 55.1ZM121.613 55.1L120.901 54.3978L120.9 54.3979L121.613 55.1ZM121.613 19L120.896 19.6973L120.905 19.7071L121.613 19ZM85.6125 19L86.3196 19.7071L86.3245 19.7022L85.6125 19ZM103.613 72.3C93.251 72.3 84.7098 68.9537 77.9128 62.2861L76.5122 63.7139C83.7152 70.7797 92.774 74.3 103.613 74.3V72.3ZM77.9162 62.2895C71.1172 55.5553 67.7125 47.1496 67.7125 37H65.7125C65.7125 47.6504 69.3078 56.578 76.5088 63.7105L77.9162 62.2895ZM67.7125 37C67.7125 26.8504 71.1171 18.4802 77.9128 11.8139L76.5122 10.3861C69.308 17.4532 65.7125 26.3496 65.7125 37H67.7125ZM77.9162 11.8105C84.7138 5.07759 93.254 1.69999 103.613 1.69999V-0.300007C92.771 -0.300007 83.7112 3.25573 76.5088 10.3895L77.9162 11.8105ZM103.613 1.69999C113.971 1.69999 122.511 5.07759 129.309 11.8105L130.716 10.3895C123.514 3.25573 114.454 -0.300007 103.613 -0.300007V1.69999ZM129.312 11.8139C136.108 18.4802 139.513 26.8504 139.513 37H141.513C141.513 26.3496 137.917 17.4532 130.713 10.3861L129.312 11.8139ZM139.513 37C139.513 43.6358 137.953 49.6633 134.844 55.1039L136.581 56.0961C139.872 50.3367 141.513 43.9642 141.513 37H139.513ZM134.842 55.1073C131.802 60.4768 127.537 64.6792 122.029 67.7249L122.996 69.4751C128.822 66.2542 133.357 61.7898 136.583 56.0928L134.842 55.1073ZM122.024 67.7273C116.587 70.7697 110.457 72.3 103.613 72.3V74.3C110.768 74.3 117.238 72.697 123.001 69.4727L122.024 67.7273ZM84.9054 55.8071C89.9052 60.8069 96.1651 63.3 103.613 63.3V61.3C96.6599 61.3 90.9198 58.9931 86.3196 54.3929L84.9054 55.8071ZM103.613 63.3C111.124 63.3 117.388 60.8086 122.325 55.8021L120.9 54.3979C116.371 58.9914 110.635 61.3 103.613 61.3V63.3ZM122.324 55.8022C127.32 50.7376 129.812 44.4473 129.812 37H127.812C127.812 43.9527 125.505 49.729 120.901 54.3978L122.324 55.8022ZM129.812 37C129.812 29.5526 127.319 23.2927 122.32 18.2929L120.905 19.7071C125.506 24.3073 127.812 30.0474 127.812 37H129.812ZM122.329 18.3028C117.394 13.2279 111.128 10.7 103.613 10.7V12.7C110.63 12.7 116.365 15.0388 120.896 19.6972L122.329 18.3028ZM103.613 10.7C96.1608 10.7 89.8993 13.2296 84.9005 18.2978L86.3245 19.7022C90.9257 15.0371 96.6642 12.7 103.613 12.7V10.7ZM84.9054 18.2929C79.9056 23.2927 77.4125 29.5526 77.4125 37H79.4125C79.4125 30.0474 81.7194 24.3073 86.3196 19.7071L84.9054 18.2929ZM77.4125 37C77.4125 44.4473 79.9053 50.7376 84.9005 55.8022L86.3245 54.3978C81.7197 49.729 79.4125 43.9527 79.4125 37H77.4125ZM189.13 2V0.999996H188.13V2H189.13ZM200.73 2H201.73V0.999996H200.73V2ZM200.73 72V73H201.73V72H200.73ZM189.13 72H188.13V73H189.13V72ZM189.13 45.4H190.13V43.9481L188.773 44.4657L189.13 45.4ZM156.43 41.5L155.723 42.2071L155.728 42.2122L155.733 42.2173L156.43 41.5ZM149.53 2V0.999996H148.53V2H149.53ZM161.03 2H162.03V0.999996H161.03V2ZM164.73 33.5L163.996 34.1791L164.005 34.1887L164.73 33.5ZM189.13 34.3L189.513 35.2234L190.13 34.9673V34.3H189.13ZM189.13 3H200.73V0.999996H189.13V3ZM199.73 2V72H201.73V2H199.73ZM200.73 71H189.13V73H200.73V71ZM190.13 72V45.4H188.13V72H190.13ZM188.773 44.4657C183.804 46.3619 179.025 47.3 174.43 47.3V49.3C179.301 49.3 184.322 48.3048 189.486 46.3343L188.773 44.4657ZM174.43 47.3C167.321 47.3 161.582 45.1112 157.126 40.7827L155.733 42.2173C160.61 46.9555 166.872 49.3 174.43 49.3V47.3ZM157.137 40.7929C152.767 36.4233 150.53 30.3689 150.53 22.5H148.53C148.53 30.7645 150.892 37.3767 155.723 42.2071L157.137 40.7929ZM150.53 22.5V2H148.53V22.5H150.53ZM149.53 3H161.03V0.999996H149.53V3ZM160.03 2V22H162.03V2H160.03ZM160.03 22C160.03 27.1561 161.303 31.2676 163.996 34.179L165.464 32.821C163.223 30.399 162.03 26.8439 162.03 22H160.03ZM164.005 34.1887C166.775 37.1044 170.667 38.5 175.53 38.5V36.5C171.059 36.5 167.751 35.2289 165.455 32.8112L164.005 34.1887ZM175.53 38.5C179.637 38.5 184.305 37.388 189.513 35.2234L188.746 33.3766C183.688 35.4787 179.289 36.5 175.53 36.5V38.5ZM190.13 34.3V2H188.13V34.3H190.13ZM230.076 61.1H229.076V62.1H230.076V61.1ZM260.376 61.1H261.376V60.1H260.376V61.1ZM260.376 72V73H261.376V72H260.376ZM218.576 72H217.576V73H218.576V72ZM218.576 2V0.999996H217.576V2H218.576ZM259.276 2H260.276V0.999996H259.276V2ZM259.276 12.8V13.8H260.276V12.8H259.276ZM230.076 12.8V11.8H229.076V12.8H230.076ZM230.076 31H229.076V32H230.076V31ZM256.676 31H257.676V30H256.676V31ZM256.676 41.6V42.6H257.676V41.6H256.676ZM230.076 41.6V40.6H229.076V41.6H230.076ZM230.076 62.1H260.376V60.1H230.076V62.1ZM259.376 61.1V72H261.376V61.1H259.376ZM260.376 71H218.576V73H260.376V71ZM219.576 72V2H217.576V72H219.576ZM218.576 3H259.276V0.999996H218.576V3ZM258.276 2V12.8H260.276V2H258.276ZM259.276 11.8H230.076V13.8H259.276V11.8ZM229.076 12.8V31H231.076V12.8H229.076ZM230.076 32H256.676V30H230.076V32ZM255.676 31V41.6H257.676V31H255.676ZM256.676 40.6H230.076V42.6H256.676V40.6ZM229.076 41.6V61.1H231.076V41.6H229.076ZM357.542 72V73H358.717L358.529 71.8406L357.542 72ZM345.842 72L344.855 72.1597L344.991 73H345.842V72ZM337.642 21.3L338.629 21.1403L338.104 17.889L336.733 20.8838L337.642 21.3ZM314.942 70.9V71.9H315.584L315.851 71.3161L314.942 70.9ZM312.042 70.9L311.134 71.3177L311.401 71.9H312.042V70.9ZM289.242 21.3L290.151 20.8823L288.779 17.8987L288.255 21.1403L289.242 21.3ZM281.042 72V73H281.893L282.029 72.1597L281.042 72ZM269.342 72L268.355 71.8393L268.166 73H269.342V72ZM280.742 2V0.999996H279.892L279.755 1.83926L280.742 2ZM292.042 2L292.954 1.58995L292.689 0.999996H292.042V2ZM313.442 49.6L312.53 50.01L313.442 52.0387L314.354 50.01L313.442 49.6ZM334.842 2V0.999996H334.195L333.93 1.58995L334.842 2ZM346.242 2L347.229 1.84063L347.094 0.999996H346.242V2ZM357.542 71H345.842V73H357.542V71ZM346.829 71.8403L338.629 21.1403L336.655 21.4597L344.855 72.1597L346.829 71.8403ZM336.733 20.8838L314.033 70.4838L315.851 71.3161L338.551 21.7161L336.733 20.8838ZM314.942 69.9H312.042V71.9H314.942V69.9ZM312.951 70.4823L290.151 20.8823L288.334 21.7177L311.134 71.3177L312.951 70.4823ZM288.255 21.1403L280.055 71.8403L282.029 72.1597L290.229 21.4597L288.255 21.1403ZM281.042 71H269.342V73H281.042V71ZM270.329 72.1607L281.729 2.16073L279.755 1.83926L268.355 71.8393L270.329 72.1607ZM280.742 3H292.042V0.999996H280.742V3ZM291.13 2.41004L312.53 50.01L314.354 49.19L292.954 1.58995L291.13 2.41004ZM314.354 50.01L335.754 2.41004L333.93 1.58995L312.53 49.19L314.354 50.01ZM334.842 3H346.242V0.999996H334.842V3ZM345.255 2.15936L356.555 72.1594L358.529 71.8406L347.229 1.84063L345.255 2.15936ZM409.648 2V0.999996H408.986L408.727 1.60912L409.648 2ZM421.848 2L422.764 2.39991L423.375 0.999996H421.848V2ZM400.948 49.9L400.031 49.5001L400.028 49.5078L400.948 49.9ZM389.548 67.5L388.925 66.7178L388.918 66.7231L389.548 67.5ZM370.348 72.2H369.348V73.2H370.348V72.2ZM370.348 61.5V60.5H369.348V61.5H370.348ZM382.548 59.6L383.109 60.4275L383.119 60.4207L383.129 60.4137L382.548 59.6ZM388.248 51.8L389.142 52.2472L389.373 51.7857L389.13 51.3302L388.248 51.8ZM361.748 2V0.999996H360.083L360.865 2.46976L361.748 2ZM374.848 2L375.732 1.53255L375.45 0.999996H374.848V2ZM394.148 38.5L393.264 38.9674L394.246 40.826L395.068 38.8909L394.148 38.5ZM409.648 3H421.848V0.999996H409.648V3ZM420.931 1.60008L400.031 49.5001L401.864 50.2999L422.764 2.39991L420.931 1.60008ZM400.028 49.5078C396.379 58.0654 392.659 63.743 388.925 66.7178L390.171 68.2822C394.303 64.9903 398.183 58.9346 401.868 50.2922L400.028 49.5078ZM388.918 66.7231C385.288 69.6646 380.141 71.2 373.348 71.2V73.2C380.421 73.2 386.074 71.6021 390.177 68.2769L388.918 66.7231ZM373.348 71.2H370.348V73.2H373.348V71.2ZM371.348 72.2V61.5H369.348V72.2H371.348ZM370.348 62.5H374.448V60.5H370.348V62.5ZM374.448 62.5C378.076 62.5 381.007 61.8537 383.109 60.4275L381.986 58.7725C380.355 59.8796 377.886 60.5 374.448 60.5V62.5ZM383.129 60.4137C385.2 58.9342 387.19 56.1522 389.142 52.2472L387.353 51.3528C385.439 55.1812 383.628 57.5991 381.966 58.7863L383.129 60.4137ZM389.13 51.3302L362.63 1.53024L360.865 2.46976L387.365 52.2698L389.13 51.3302ZM361.748 3H374.848V0.999996H361.748V3ZM373.964 2.46744L393.264 38.9674L395.032 38.0326L375.732 1.53255L373.964 2.46744ZM395.068 38.8909L410.568 2.39087L408.727 1.60912L393.227 38.1091L395.068 38.8909ZM537.034 72V73H538.209L538.022 71.8406L537.034 72ZM525.334 72L524.347 72.1597L524.483 73H525.334V72ZM517.134 21.3L518.122 21.1403L517.596 17.889L516.225 20.8838L517.134 21.3ZM494.434 70.9V71.9H495.076L495.344 71.3161L494.434 70.9ZM491.534 70.9L490.626 71.3177L490.893 71.9H491.534V70.9ZM468.734 21.3L469.643 20.8823L468.271 17.8987L467.747 21.1403L468.734 21.3ZM460.534 72V73H461.386L461.522 72.1597L460.534 72ZM448.834 72L447.847 71.8393L447.658 73H448.834V72ZM460.234 2V0.999996H459.384L459.247 1.83926L460.234 2ZM471.534 2L472.446 1.58995L472.181 0.999996H471.534V2ZM492.934 49.6L492.022 50.01L492.934 52.0387L493.846 50.01L492.934 49.6ZM514.334 2V0.999996H513.688L513.422 1.58995L514.334 2ZM525.734 2L526.722 1.84063L526.586 0.999996H525.734V2ZM537.034 71H525.334V73H537.034V71ZM526.322 71.8403L518.122 21.1403L516.147 21.4597L524.347 72.1597L526.322 71.8403ZM516.225 20.8838L493.525 70.4838L495.344 71.3161L518.044 21.7161L516.225 20.8838ZM494.434 69.9H491.534V71.9H494.434V69.9ZM492.443 70.4823L469.643 20.8823L467.826 21.7177L490.626 71.3177L492.443 70.4823ZM467.747 21.1403L459.547 71.8403L461.522 72.1597L469.722 21.4597L467.747 21.1403ZM460.534 71H448.834V73H460.534V71ZM449.821 72.1607L461.221 2.16073L459.247 1.83926L447.847 71.8393L449.821 72.1607ZM460.234 3H471.534V0.999996H460.234V3ZM470.622 2.41004L492.022 50.01L493.846 49.19L472.446 1.58995L470.622 2.41004ZM493.846 50.01L515.246 2.41004L513.422 1.58995L492.022 49.19L493.846 50.01ZM514.334 3H525.734V0.999996H514.334V3ZM524.747 2.15936L536.047 72.1594L538.022 71.8406L526.722 1.84063L524.747 2.15936ZM593.721 31.9L594.418 31.1824L593.721 31.9ZM593.721 65.4L593.025 64.6824L593.721 65.4ZM550.021 72H549.021V73H550.021V72ZM550.021 2V0.999996H549.021V2H550.021ZM561.521 2H562.521V0.999996H561.521V2ZM561.521 25.3H560.521V26.3H561.521V25.3ZM609.621 2V0.999996H608.621V2H609.621ZM621.121 2H622.121V0.999996H621.121V2ZM621.121 72V73H622.121V72H621.121ZM609.621 72H608.621V73H609.621V72ZM585.021 57.7L585.708 58.4265L585.709 58.4259L585.021 57.7ZM585.021 39.6L584.324 40.3167L584.334 40.3263L584.344 40.3355L585.021 39.6ZM561.521 36V35H560.521V36H561.521ZM561.521 61.2H560.521V62.2H561.521V61.2ZM576.321 26.3C583.161 26.3 588.701 28.4208 593.025 32.6176L594.418 31.1824C589.675 26.5792 583.614 24.3 576.321 24.3V26.3ZM593.025 32.6176C597.348 36.8139 599.521 42.1475 599.521 48.7H601.521C601.521 41.6525 599.161 35.7861 594.418 31.1824L593.025 32.6176ZM599.521 48.7C599.521 55.1828 597.35 60.4841 593.025 64.6824L594.418 66.1176C599.159 61.5159 601.521 55.6839 601.521 48.7H599.521ZM593.025 64.6824C588.701 68.8792 583.161 71 576.321 71V73C583.614 73 589.675 70.7208 594.418 66.1176L593.025 64.6824ZM576.321 71H550.021V73H576.321V71ZM551.021 72V2H549.021V72H551.021ZM550.021 3H561.521V0.999996H550.021V3ZM560.521 2V25.3H562.521V2H560.521ZM561.521 26.3H576.321V24.3H561.521V26.3ZM609.621 3H621.121V0.999996H609.621V3ZM620.121 2V72H622.121V2H620.121ZM621.121 71H609.621V73H621.121V71ZM610.621 72V2H608.621V72H610.621ZM575.521 62.2C579.605 62.2 583.03 60.9601 585.708 58.4265L584.334 56.9735C582.079 59.1066 579.17 60.2 575.521 60.2V62.2ZM585.709 58.4259C588.453 55.8266 589.821 52.5256 589.821 48.6H587.821C587.821 52.0077 586.656 54.7734 584.333 56.974L585.709 58.4259ZM589.821 48.6C589.821 44.6741 588.452 41.4004 585.699 38.8645L584.344 40.3355C586.657 42.4662 587.821 45.1925 587.821 48.6H589.821ZM585.718 38.8833C583.041 36.2786 579.613 35 575.521 35V37C579.162 37 582.067 38.1214 584.324 40.3167L585.718 38.8833ZM575.521 35H561.521V37H575.521V35ZM560.521 36V61.2H562.521V36H560.521ZM561.521 62.2H575.521V60.2H561.521V62.2Z" fill="black" fill-opacity="0.1"/>
</svg>
